<svg width="24" height="24" viewBox="0 0 24 24" fill="none" xmlns="http://www.w3.org/2000/svg">
<path d="M12 24C5.37258 24 0 18.6274 0 12C0 5.37258 5.37258 0 12 0C18.6274 0 24 5.37258 24 12V24H12Z" fill="#EBEFFF"/>
<path d="M13.4868 13.916C13.4868 14.404 13.4268 14.844 13.3068 15.236C13.1868 15.628 13.0068 15.962 12.7668 16.238C12.5308 16.514 12.2348 16.726 11.8788 16.874C11.5228 17.022 11.1088 17.096 10.6368 17.096C10.4208 17.096 10.2088 17.082 10.0008 17.054C9.79284 17.03 9.57484 16.99 9.34684 16.934C9.35884 16.774 9.37284 16.614 9.38884 16.454C9.40484 16.294 9.41884 16.134 9.43084 15.974C9.44284 15.886 9.47684 15.816 9.53284 15.764C9.59284 15.708 9.67684 15.68 9.78484 15.68C9.85284 15.68 9.94084 15.694 10.0488 15.722C10.1608 15.75 10.3008 15.764 10.4688 15.764C10.6968 15.764 10.8988 15.732 11.0748 15.668C11.2508 15.6 11.3968 15.494 11.5128 15.35C11.6328 15.206 11.7228 15.02 11.7828 14.792C11.8428 14.56 11.8728 14.28 11.8728 13.952V8.324H13.4868V13.916Z" fill="#4F4F4F"/>
</svg>
