<svg width="123" height="29" viewBox="0 0 123 29" fill="none" xmlns="http://www.w3.org/2000/svg">
<path d="M5.748 13.596H6.396C6.996 13.596 7.428 13.408 7.692 13.032L11.628 7.32C11.86 7.016 12.108 6.808 12.372 6.696C12.644 6.576 12.98 6.516 13.38 6.516H16.908L11.724 13.584C11.356 14.072 10.96 14.424 10.536 14.64C10.84 14.752 11.116 14.908 11.364 15.108C11.612 15.308 11.844 15.568 12.06 15.888L17.34 24H13.716C13.484 24 13.284 23.984 13.116 23.952C12.956 23.92 12.816 23.872 12.696 23.808C12.576 23.744 12.472 23.668 12.384 23.58C12.296 23.484 12.212 23.376 12.132 23.256L8.172 17.172C8.028 16.948 7.844 16.792 7.62 16.704C7.404 16.608 7.108 16.56 6.732 16.56H5.748V24H1.692V6.516H5.748V13.596ZM35.0239 15.252C35.0239 16.516 34.8039 17.692 34.3639 18.78C33.9319 19.868 33.3199 20.816 32.5279 21.624C31.7359 22.424 30.7799 23.052 29.6599 23.508C28.5479 23.964 27.3119 24.192 25.9519 24.192C24.5919 24.192 23.3519 23.964 22.2319 23.508C21.1119 23.052 20.1519 22.424 19.3519 21.624C18.5599 20.816 17.9439 19.868 17.5039 18.78C17.0719 17.692 16.8559 16.516 16.8559 15.252C16.8559 13.988 17.0719 12.812 17.5039 11.724C17.9439 10.636 18.5599 9.692 19.3519 8.892C20.1519 8.092 21.1119 7.464 22.2319 7.008C23.3519 6.552 24.5919 6.324 25.9519 6.324C27.3119 6.324 28.5479 6.556 29.6599 7.02C30.7799 7.476 31.7359 8.104 32.5279 8.904C33.3199 9.704 33.9319 10.648 34.3639 11.736C34.8039 12.824 35.0239 13.996 35.0239 15.252ZM30.8719 15.252C30.8719 14.388 30.7599 13.612 30.5359 12.924C30.3119 12.228 29.9879 11.64 29.5639 11.16C29.1479 10.68 28.6359 10.312 28.0279 10.056C27.4199 9.8 26.7279 9.672 25.9519 9.672C25.1679 9.672 24.4679 9.8 23.8519 10.056C23.2439 10.312 22.7279 10.68 22.3039 11.16C21.8879 11.64 21.5679 12.228 21.3439 12.924C21.1199 13.612 21.0079 14.388 21.0079 15.252C21.0079 16.124 21.1199 16.908 21.3439 17.604C21.5679 18.292 21.8879 18.876 22.3039 19.356C22.7279 19.836 23.2439 20.204 23.8519 20.46C24.4679 20.708 25.1679 20.832 25.9519 20.832C26.7279 20.832 27.4199 20.708 28.0279 20.46C28.6359 20.204 29.1479 19.836 29.5639 19.356C29.9879 18.876 30.3119 18.292 30.5359 17.604C30.7599 16.908 30.8719 16.124 30.8719 15.252ZM52.6748 6.516V24H50.5628C50.2508 24 49.9868 23.952 49.7708 23.856C49.5628 23.752 49.3548 23.576 49.1468 23.328L40.9028 12.9C40.9348 13.212 40.9548 13.516 40.9628 13.812C40.9788 14.1 40.9868 14.372 40.9868 14.628V24H37.4108V6.516H39.5468C39.7228 6.516 39.8708 6.524 39.9908 6.54C40.1108 6.556 40.2188 6.588 40.3148 6.636C40.4108 6.676 40.5028 6.736 40.5908 6.816C40.6788 6.896 40.7788 7.004 40.8908 7.14L49.2068 17.64C49.1668 17.304 49.1388 16.98 49.1228 16.668C49.1068 16.348 49.0988 16.048 49.0988 15.768V6.516H52.6748ZM71.331 6.516V24H69.219C68.907 24 68.643 23.952 68.427 23.856C68.219 23.752 68.011 23.576 67.803 23.328L59.559 12.9C59.591 13.212 59.611 13.516 59.619 13.812C59.635 14.1 59.643 14.372 59.643 14.628V24H56.067V6.516H58.203C58.379 6.516 58.527 6.524 58.647 6.54C58.767 6.556 58.875 6.588 58.971 6.636C59.067 6.676 59.159 6.736 59.247 6.816C59.335 6.896 59.435 7.004 59.547 7.14L67.863 17.64C67.823 17.304 67.795 16.98 67.779 16.668C67.763 16.348 67.755 16.048 67.755 15.768V6.516H71.331ZM78.8033 9.636V13.716H84.2993V16.716H78.8033V20.88H85.9792V24H74.7233V6.516H85.9792V9.636H78.8033ZM92.5371 13.596H93.1851C93.7851 13.596 94.2171 13.408 94.4811 13.032L98.4171 7.32C98.6491 7.016 98.8971 6.808 99.1611 6.696C99.4331 6.576 99.7691 6.516 100.169 6.516H103.697L98.5131 13.584C98.1451 14.072 97.7491 14.424 97.3251 14.64C97.6291 14.752 97.9051 14.908 98.1531 15.108C98.4011 15.308 98.6331 15.568 98.8491 15.888L104.129 24H100.505C100.273 24 100.073 23.984 99.9051 23.952C99.7451 23.92 99.6051 23.872 99.4851 23.808C99.3651 23.744 99.2611 23.668 99.1731 23.58C99.0851 23.484 99.0011 23.376 98.9211 23.256L94.9611 17.172C94.8171 16.948 94.6331 16.792 94.4091 16.704C94.1931 16.608 93.8971 16.56 93.5211 16.56H92.5371V24H88.4811V6.516H92.5371V13.596ZM117.99 9.732H113.07V24H109.014V9.732H104.094V6.516H117.99V9.732Z" fill="#3463FF"/>
<rect x="118.968" y="20" width="4.03279" height="4" fill="#56E8A2"/>
</svg>
