<svg width="17" height="17" viewBox="0 0 17 17" fill="none" xmlns="http://www.w3.org/2000/svg">
<rect x="0.830322" y="0.290283" width="16" height="16" rx="4" fill="#3463FF"/>
<path d="M7.61376 8.03028H7.90876C8.15543 8.03028 8.33376 7.95362 8.44376 7.80028L10.2788 5.34528C10.3654 5.22862 10.4604 5.14862 10.5638 5.10528C10.6671 5.05862 10.7938 5.03528 10.9438 5.03528H12.2438L9.93376 8.01028C9.78376 8.20362 9.62876 8.34195 9.46876 8.42528C9.58543 8.47195 9.69043 8.53362 9.78376 8.61028C9.87709 8.68362 9.96709 8.78195 10.0538 8.90528L12.4238 12.2903H11.0888C11.0021 12.2903 10.9271 12.2836 10.8638 12.2703C10.8038 12.2569 10.7504 12.2386 10.7038 12.2153C10.6571 12.1919 10.6171 12.1636 10.5838 12.1303C10.5504 12.0936 10.5188 12.0519 10.4888 12.0053L8.62376 9.39528C8.56043 9.30528 8.48543 9.24195 8.39876 9.20528C8.31209 9.16528 8.19043 9.14528 8.03376 9.14528H7.61376V12.2903H6.11376V5.03528H7.61376V8.03028Z" fill="white"/>
</svg>
