<svg width="20" height="20" viewBox="0 0 20 20" fill="none" xmlns="http://www.w3.org/2000/svg">
<path d="M6 9C5.44772 9 5 9.44772 5 10C5 10.5523 5.44772 11 6 11V9ZM14 11C14.5523 11 15 10.5523 15 10C15 9.44772 14.5523 9 14 9V11ZM3 2H17V0H3V2ZM17 2C17.5523 2 18 2.44771 18 3H20C20 1.34315 18.6569 0 17 0V2ZM18 3V17H20V3H18ZM18 17C18 17.5523 17.5523 18 17 18V20C18.6569 20 20 18.6569 20 17H18ZM17 18H3V20H17V18ZM3 18C2.44771 18 2 17.5523 2 17H0C0 18.6569 1.34315 20 3 20V18ZM2 17V3H0V17H2ZM2 3C2 2.44772 2.44772 2 3 2V0C1.34315 0 0 1.34315 0 3H2ZM6 11H14V9H6V11Z" fill="#56E8A2"/>
</svg>
