<svg width="14" height="14" viewBox="0 0 14 14" fill="none" xmlns="http://www.w3.org/2000/svg">
<path d="M2.04988 0.636643C1.65936 0.246119 1.02619 0.246119 0.635667 0.636643C0.245142 1.02717 0.245142 1.66033 0.635667 2.05086L2.04988 0.636643ZM11.9494 13.3646C12.3399 13.7551 12.9731 13.7551 13.3636 13.3646C13.7541 12.974 13.7541 12.3409 13.3636 11.9504L11.9494 13.3646ZM0.635667 11.9504C0.245142 12.3409 0.245142 12.974 0.635667 13.3646C1.02619 13.7551 1.65936 13.7551 2.04988 13.3646L0.635667 11.9504ZM13.3636 2.05086C13.7541 1.66033 13.7541 1.02717 13.3636 0.636643C12.9731 0.246119 12.3399 0.246119 11.9494 0.636643L13.3636 2.05086ZM0.635667 2.05086L11.9494 13.3646L13.3636 11.9504L2.04988 0.636643L0.635667 2.05086ZM2.04988 13.3646L13.3636 2.05086L11.9494 0.636643L0.635667 11.9504L2.04988 13.3646Z" fill="#C0C0C0"/>
</svg>
