<svg width="81" height="81" viewBox="0 0 81 81" fill="none" xmlns="http://www.w3.org/2000/svg">
<circle cx="40.0659" cy="40.1094" r="40" fill="#FFEEED"/>
<path d="M30.5198 28.4416C29.934 27.8558 28.9843 27.8558 28.3985 28.4416C27.8127 29.0274 27.8127 29.9772 28.3985 30.563L30.5198 28.4416ZM49.6117 51.7762C50.1975 52.3619 51.1472 52.3619 51.733 51.7762C52.3188 51.1904 52.3188 50.2406 51.733 49.6548L49.6117 51.7762ZM28.3981 49.6545C27.8123 50.2403 27.8123 51.19 28.3981 51.7758C28.9839 52.3616 29.9336 52.3616 30.5194 51.7758L28.3981 49.6545ZM51.7326 30.5626C52.3184 29.9768 52.3184 29.0271 51.7326 28.4413C51.1468 27.8555 50.1971 27.8555 49.6113 28.4413L51.7326 30.5626ZM28.3985 30.563L49.6117 51.7762L51.733 49.6548L30.5198 28.4416L28.3985 30.563ZM30.5194 51.7758L51.7326 30.5626L49.6113 28.4413L28.3981 49.6545L30.5194 51.7758Z" fill="#FF534A"/>
</svg>
