<svg width="14" height="14" viewBox="0 0 14 14" fill="none" xmlns="http://www.w3.org/2000/svg">
<path d="M12.5974 3.64131C13.2157 3.02298 13.2157 2.02047 12.5974 1.40214C11.9791 0.783813 10.9765 0.783813 10.3582 1.40214L12.5974 3.64131ZM1.40153 10.3588C0.783202 10.9772 0.783202 11.9797 1.40153 12.598C2.01986 13.2163 3.02237 13.2163 3.6407 12.598L1.40153 10.3588ZM3.64268 1.40214C3.02435 0.783813 2.02184 0.783813 1.40351 1.40214C0.785175 2.02047 0.785175 3.02298 1.40351 3.64131L3.64268 1.40214ZM10.3602 12.598C10.9785 13.2163 11.981 13.2163 12.5994 12.598C13.2177 11.9797 13.2177 10.9772 12.5994 10.3588L10.3602 12.598ZM10.3582 1.40214L1.40153 10.3588L3.6407 12.598L12.5974 3.64131L10.3582 1.40214ZM1.40351 3.64131L10.3602 12.598L12.5994 10.3588L3.64268 1.40214L1.40351 3.64131Z" fill="#FF534A"/>
</svg>
