<svg width="24" height="17" viewBox="0 0 24 17" fill="none" xmlns="http://www.w3.org/2000/svg">
<path d="M16.3636 9.22572C16.0473 9.22572 15.6873 9.22572 15.3055 9.28338C16.5709 10.2521 17.4545 11.5322 17.4545 13.262V16.145H24V13.262C24 10.575 18.9055 9.22572 16.3636 9.22572ZM7.63636 9.22572C5.09455 9.22572 0 10.575 0 13.262V16.145H15.2727V13.262C15.2727 10.575 10.1782 9.22572 7.63636 9.22572ZM7.63636 6.91929C8.50435 6.91929 9.33678 6.55479 9.95053 5.90598C10.5643 5.25717 10.9091 4.3772 10.9091 3.45965C10.9091 2.54209 10.5643 1.66212 9.95053 1.01331C9.33678 0.364497 8.50435 0 7.63636 0C6.76838 0 5.93595 0.364497 5.3222 1.01331C4.70844 1.66212 4.36364 2.54209 4.36364 3.45965C4.36364 4.3772 4.70844 5.25717 5.3222 5.90598C5.93595 6.55479 6.76838 6.91929 7.63636 6.91929ZM16.3636 6.91929C17.2316 6.91929 18.064 6.55479 18.6778 5.90598C19.2916 5.25717 19.6364 4.3772 19.6364 3.45965C19.6364 2.54209 19.2916 1.66212 18.6778 1.01331C18.064 0.364497 17.2316 0 16.3636 0C15.4957 0 14.6632 0.364497 14.0495 1.01331C13.4357 1.66212 13.0909 2.54209 13.0909 3.45965C13.0909 4.3772 13.4357 5.25717 14.0495 5.90598C14.6632 6.55479 15.4957 6.91929 16.3636 6.91929Z" fill="white"/>
</svg>
