<svg width="101" height="302" viewBox="0 0 101 302" fill="none" xmlns="http://www.w3.org/2000/svg">
<path d="M82.7814 126.73C81.1391 128.155 79.3797 126.772 79.6723 130.265C80.1737 130.666 82.051 133.5 83.7797 135.413C85.9701 137.838 85.0136 140.156 86.6955 146.843C88.0409 152.193 94.3131 148.432 94.2668 146.549C94.2204 144.666 89.939 138.135 89.939 138.135C92.4339 139.358 92.7571 139.591 93.9298 139.943C94.5889 139.696 94.7231 139.486 94.1544 138.868C91.8433 137.695 90.4086 136.314 88.2227 134.771C84.837 131.179 84.3716 130.171 82.7966 126.763L82.7814 126.73Z" fill="#F2DCCC"/>
<path d="M57.9309 265.755C54.7155 266.236 54.2109 266.905 50.863 265.69L52.2792 274.881C54.5282 276.043 55.6711 276.459 57.504 274.971L57.9309 265.755Z" fill="#F2DCCC"/>
<path d="M59.1694 274.726C56.732 277.951 54.9007 278.628 50.2711 276.519C48.0208 280.958 47.6781 282.142 48.5963 284.124C48.5963 284.124 72.1461 287.212 74.0096 286.703C75.8731 286.194 74.7233 283.175 74.7233 283.175C74.7233 283.175 62.0768 275.931 59.1694 274.726Z" fill="#868686"/>
<path d="M36.9901 267.622C33.7455 267.831 33.1862 268.455 29.9527 266.962L30.5891 276.239C32.7321 277.588 33.8359 278.098 35.7877 276.77L36.9901 267.622Z" fill="#F2DCCC"/>
<path d="M37.8931 276.29C35.4556 279.515 33.6243 280.192 28.9947 278.083C26.7445 282.522 26.4017 283.707 27.3199 285.689C27.3199 285.689 50.8697 288.777 52.7332 288.267C54.5967 287.758 53.447 284.739 53.447 284.739C53.447 284.739 40.8004 277.496 37.8931 276.29Z" fill="#868686"/>
<path d="M70.484 142.287L48.6043 150.552C50.8065 168.146 47.749 218.671 47.3961 262.473C50.1685 264.363 60.3538 267.578 63.2948 262.197C66.8523 255.687 70.9721 171.733 70.484 142.287Z" fill="#C4C4C4"/>
<path d="M52.2025 148.138L27.1784 144.601C25.9729 181.195 29.6507 208.908 28.2878 261.19C29.6843 262.007 35.5473 270.15 42.3892 263.581C45.6213 260.478 53.1189 177.67 52.2025 148.138Z" fill="#C4C4C4" stroke="#EFF2F4" stroke-width="1.01135"/>
<path d="M84.2924 124.489C80.2202 125.041 77.2876 132.636 76.0144 134.604C69.8056 134.046 44.4469 64.7016 47.4515 60.7778C49.6307 57.9319 55.3998 61.9082 56.7478 63.481C56.7478 63.481 88.3647 123.938 84.2924 124.489Z" fill="#2BE28A"/>
<path d="M41.6382 5.45731C32.6445 8.87563 29.4976 25.0273 39.1581 34.1518C44.9201 41.9947 43.0436 42.2175 43.68 45.2146C44.1891 47.6123 47.7119 48.0782 50.4093 45.7962C50.1261 42.6591 50.5192 40.0458 54.463 40.5913C58.4069 41.1368 59.5778 36.1726 59.6703 33.6223C60.684 33.2409 63.0225 33.0307 62.24 31.4281C61.4575 29.8254 60.544 25.9802 60.4385 24.7346C61.2166 20.6659 64.2493 16.9268 61.7554 9.4985C60.7381 6.46852 52.8803 1.1844 41.6382 5.45731Z" fill="#F2DCCC"/>
<path d="M42.2019 47.1812C45.1493 49.9303 49.63 49.713 52.3833 46.8883C52.6622 46.6022 53.2317 46.8114 53.206 47.2102L52.5707 57.0483C57.6143 58.858 69.829 104.703 72.3835 139.792C73.1799 150.732 31.1169 158.027 25.8907 147.345C27.7486 126.59 24.6261 70.5846 40.4355 57.5884L41.4763 47.4295C41.5114 47.0873 41.9503 46.9466 42.2019 47.1812Z" fill="#9AE3C0"/>
<path d="M27.968 146.32C24.8355 143.46 16.4189 149.547 14.0143 150.591C8.65781 146.157 31.2759 64.0842 36.4992 62.2972C40.2876 61.001 41.8471 67.3327 42.0992 69.6567L27.968 146.32Z" fill="#2BE28A"/>
<path d="M24.8027 147.18C22.6773 146.826 21.4683 146.759 18.9729 149.211C18.9799 149.853 19.1492 150.937 18.7682 153.486C18.2854 156.716 15.9053 157.459 11.8321 163.017C8.57359 167.463 15.4018 169.887 16.8174 168.65C18.233 167.413 20.5522 159.957 20.5522 159.957C21.1819 162.655 21.2063 163.052 21.6737 164.178C22.2778 164.527 22.523 164.496 22.6395 163.665C22.0866 161.14 22.2446 159.156 22.0541 156.492C22.6818 151.598 23.162 150.598 24.7871 147.213L24.8027 147.18Z" fill="#F2DCCC"/>
<path d="M39.9921 31.0837C32.122 29.5676 33.6339 23.9145 36.9288 23.5805C40.2237 23.2464 41.5285 26.9112 41.5285 26.9112C43.8205 24.8163 43.1872 18.1123 42.592 13.7281C53.8692 14.0525 58.2778 10.1784 59.6381 7.35835C61.0531 8.51879 62.2248 9.90449 63.096 11.4484C62.3654 -0.0594458 52.254 0.304608 48.7034 2.63415C28.6292 0.364653 29.4268 11.5588 29.4268 11.5588C23.1101 14.5758 31.1697 26.4895 32.6728 27.9623C34.7144 31.6483 37.5486 35.0071 38.6531 34.0843C39.1063 33.7057 39.4616 33.2399 39.6933 32.7208C39.9249 32.2018 40.0269 31.6426 39.9921 31.0837Z" fill="#483A2D"/>
<circle cx="53.3674" cy="24.1499" r="1.45686" transform="rotate(-0.943779 53.3674 24.1499)" fill="#97A4C5"/>
</svg>
