<svg width="35" height="57" viewBox="0 0 35 57" fill="none" xmlns="http://www.w3.org/2000/svg">
<path d="M19.1602 26.9837L12.9572 27.42C18.0575 44.9432 18.3672 39.6433 27.7802 40.2096C27.6848 39.5363 27.7457 39.0172 28.2708 38.1276C26.2468 37.815 21.3355 36.4637 21.1332 35.6266C20.7898 34.2057 20.0246 29.2206 19.1602 26.9837Z" fill="#C4C4C4"/>
<path d="M12.6403 27.4423L11.3273 27.5347C9.00462 32.8275 7.54909 38.3619 4.93394 48.5509C4.95624 48.8679 7.20348 49.1193 7.20348 49.1193C7.81472 48.5274 14.2292 37.7307 14.9284 34.7435L12.6403 27.4423Z" fill="#C4C4C4"/>
<path d="M6.5174 23.4857C7.59417 23.6175 8.20199 26.0503 8.49113 26.6403C10.2565 26.9347 17.312 14.3455 16.6045 13.1362C16.0913 12.2591 14.7409 12.9342 14.3069 13.2396L6.5174 23.4857Z" fill="#2BE28A"/>
<path d="M15.3685 11.0396L15.3797 11.7745C14.2512 12.2222 11.3662 19.0828 11.2526 26.5351C11.2007 29.9378 21.091 32.9809 21.618 32.1287C22.6133 30.5191 21.9124 13.5785 18.1605 11.7322L18.1491 10.9825C18.1398 10.3704 17.3364 10.1599 16.7242 10.1624C16.1099 10.1649 15.3591 10.4253 15.3685 11.0396Z" fill="#9AE3C0"/>
<path d="M20.617 28.5506C21.3894 27.7889 23.6731 28.8246 24.315 28.9648C25.6427 27.7647 20.1646 14.4133 18.7775 14.2161C17.7714 14.0731 17.4611 15.5505 17.4306 16.0804L20.617 28.5506Z" fill="#2BE28A"/>
<path d="M29.8809 40.7996C30.7357 40.428 30.9866 40.0543 30.7645 38.9025C31.8812 38.6386 32.1652 38.6259 32.5596 38.939C32.5596 38.939 31.9766 44.3839 31.7616 44.7739C31.5465 45.164 30.9322 44.7428 30.9322 44.7428C30.9322 44.7428 29.9937 41.5165 29.8809 40.7996Z" fill="#868686"/>
<path d="M28.2296 39.8802C27.951 39.2016 28.2195 38.8472 28.6382 38.3107L30.5343 39.0367C30.693 39.6134 30.7337 39.8974 30.3096 40.2423L28.2296 39.8802Z" fill="#F2DCCC"/>
<path d="M4.18818 51.0772C4.71938 51.8749 5.14317 52.061 6.26855 51.6273C6.7383 52.7095 6.80266 52.9947 6.55735 53.4507C6.55735 53.4507 0.940795 53.8485 0.507013 53.7017C0.0732308 53.5548 0.387996 52.8566 0.387996 52.8566C0.387996 52.8566 3.48313 51.3214 4.18818 51.0772Z" fill="#868686"/>
<path d="M5.1275 48.9403C5.9033 49.2714 6.27937 49.4924 6.84059 49.486L5.93972 51.5509C5.29422 51.6936 4.97825 51.7222 4.61924 51.2308L5.1275 48.9403Z" fill="#F2DCCC"/>
<path d="M21.1797 28.4933C21.7234 28.4987 21.7039 28.3207 22.2712 28.5043C22.4722 28.7351 22.2628 30.5084 22.5153 31.2278C22.8612 32.2134 23.1053 32.9258 22.6371 34.4342C22.2625 35.641 20.6713 34.4385 20.6934 33.9927C20.7155 33.547 21.6964 31.7787 21.3907 31.8519C21.085 31.925 21.1189 32.4115 20.8157 32.4376C20.6477 32.3464 20.6143 32.29 20.7638 32.1709C21.0876 31.6709 21.3381 31.3685 21.4019 30.7337C21.5499 29.2612 20.7533 29.2326 21.1797 28.4933Z" fill="#F2DCCC"/>
<path d="M6.62227 23.9324C6.94743 24.3682 7.0773 24.2448 7.27504 24.8073C7.21333 25.107 5.67589 26.0153 5.25672 26.6521C4.68244 27.5246 4.26381 28.1506 2.78022 28.6925C1.59335 29.1259 1.58541 27.1315 1.95333 26.8789C2.32125 26.6263 4.32224 26.3347 4.07875 26.1359C3.83526 25.9371 3.4689 26.2589 3.26436 26.0336C3.23505 25.8447 3.25975 25.7839 3.44505 25.8306C4.03895 25.7851 4.4314 25.8011 4.97492 25.4672C6.2359 24.6923 5.77578 24.0415 6.62227 23.9324Z" fill="#F2DCCC"/>
<path d="M17.0513 3.33579C15.0987 2.81882 13.6166 3.63711 13.5741 4.43872C17.5665 5.93659 15.8284 8.56588 17.4033 9.04471C18.6936 9.43705 20.6831 7.65874 19.0425 4.68994C20.6184 4.66994 22.1673 2.92909 20.4656 1.51667C17.2703 -1.13548 17.0513 3.33579 17.0513 3.33579Z" fill="#AD8259"/>
<path d="M12.8809 9.55179C12.1333 8.154 13.0707 4.98023 13.446 4.37407C15.1093 3.01352 15.8897 7.13728 16.6884 6.48194C17.487 5.82661 17.8753 6.62095 18.1848 7.06043C18.4942 7.49991 17.4715 8.01379 17.1742 8.49742C16.9364 8.88433 17.365 8.923 17.6091 8.89398C17.8531 8.86495 17.5026 9.80319 17.5026 9.80319C16.909 9.90648 15.793 10.0177 16.0783 9.63639C16.3636 9.25504 16.0216 9.26491 15.8149 9.31751C15.0846 9.73123 13.446 10.6084 12.8809 9.55179Z" fill="#F2DCCC"/>
</svg>
