<svg width="96" height="155" viewBox="0 0 96 155" fill="none" xmlns="http://www.w3.org/2000/svg">
<path d="M52.459 73.8802L35.4755 75.0749C49.4398 123.053 50.2878 108.542 76.0605 110.092C75.7991 108.249 75.9659 106.828 77.4036 104.392C71.8618 103.536 58.415 99.8361 57.8611 97.5442C56.9208 93.6537 54.8258 80.0049 52.459 73.8802Z" fill="#C4C4C4"/>
<path d="M34.6078 75.1359L31.0127 75.3888C24.6534 89.8802 20.6682 105.033 13.508 132.931C13.5691 133.798 19.722 134.487 19.722 134.487C21.3955 132.866 38.958 103.305 40.8726 95.1264L34.6078 75.1359Z" fill="#C4C4C4"/>
<path d="M17.844 64.303C20.7922 64.6638 22.4563 71.3248 23.248 72.9402C28.0814 73.7462 47.3993 39.2774 45.4621 35.9663C44.057 33.5649 40.3598 35.4133 39.1713 36.2495L17.844 64.303Z" fill="#2BE28A"/>
<path d="M48.367 28.1151C46.5143 29.5486 45.1303 29.5249 43.3442 28.2108C42.825 27.8289 42.0464 28.1746 42.0563 28.819L42.1084 32.2379C39.0186 33.4638 31.1196 52.2478 30.8086 72.6519C30.6665 81.9683 57.7459 90.3004 59.1887 87.9671C61.9139 83.56 59.9949 37.1771 49.7223 32.122L49.6699 28.6874C49.6601 28.0453 48.8749 27.7221 48.367 28.1151Z" fill="#9AE3C0"/>
<path d="M56.4478 78.1702C58.5626 76.0847 64.8154 78.9205 66.573 79.3042C70.2082 76.0183 55.2093 39.4627 51.4114 38.9228C48.6568 38.5311 47.8072 42.5765 47.7237 44.0272L56.4478 78.1702Z" fill="#2BE28A"/>
<path d="M81.8127 111.708C84.1531 110.69 84.84 109.667 84.232 106.513C87.2894 105.791 88.067 105.756 89.147 106.613C89.147 106.613 87.5507 121.521 86.9619 122.589C86.3731 123.657 84.6911 122.504 84.6911 122.504C84.6911 122.504 82.1214 113.67 81.8127 111.708Z" fill="#868686"/>
<path d="M77.2914 109.19C76.5285 107.332 77.2636 106.362 78.41 104.893L83.6015 106.881C84.036 108.46 84.1474 109.237 82.9862 110.182L77.2914 109.19Z" fill="#F2DCCC"/>
<path d="M11.4673 139.847C12.9217 142.031 14.082 142.541 17.1633 141.353C18.4494 144.317 18.6257 145.097 17.954 146.346C17.954 146.346 2.57608 147.435 1.3884 147.033C0.200721 146.631 1.06254 144.719 1.06254 144.719C1.06254 144.719 9.53691 140.516 11.4673 139.847Z" fill="#868686"/>
<path d="M14.0382 133.997C16.1624 134.904 17.192 135.509 18.7286 135.491L16.2621 141.145C14.4947 141.536 13.6296 141.614 12.6466 140.269L14.0382 133.997Z" fill="#F2DCCC"/>
<path d="M57.9879 78.0134C59.4764 78.0284 59.4232 77.5408 60.9764 78.0436C61.5267 78.6754 60.9534 83.5308 61.6446 85.5005C62.5917 88.199 63.2603 90.1495 61.9783 94.2796C60.9527 97.5836 56.5961 94.2912 56.6565 93.0707C56.7169 91.8503 59.4027 87.0088 58.5657 87.2092C57.7286 87.4095 57.8214 88.7414 56.9913 88.8129C56.5313 88.5632 56.44 88.4086 56.8491 88.0826C57.7357 86.7138 58.4218 85.8856 58.5964 84.1478C59.0016 80.1159 56.8206 80.0378 57.9879 78.0134Z" fill="#F2DCCC"/>
<path d="M18.1315 65.5258C19.0217 66.7188 19.3773 66.381 19.9187 67.9211C19.7498 68.7418 15.5403 71.2285 14.3926 72.9722C12.8203 75.361 11.6741 77.075 7.61206 78.5585C4.36245 79.7454 4.34072 74.2846 5.34806 73.593C6.35541 72.9013 11.8341 72.1032 11.1674 71.5588C10.5007 71.0145 9.49764 71.8955 8.93761 71.2786C8.85738 70.7614 8.92499 70.595 9.43233 70.7229C11.0584 70.5984 12.1329 70.6422 13.6211 69.7278C17.0736 67.6064 15.8138 65.8242 18.1315 65.5258Z" fill="#F2DCCC"/>
<path d="M46.6856 9.13327C41.3394 7.71784 37.2815 9.95829 37.1651 12.1531C48.0961 16.2542 43.3373 23.3399 47.6492 24.6509C51.1823 25.7252 56.6293 20.8562 52.1373 12.7277C56.4521 12.673 60.6929 8.01976 56.0338 4.15258C47.2852 -3.10891 46.6856 9.13327 46.6856 9.13327Z" fill="#AD8259"/>
<path d="M43.2993 25.5107C41.2999 26.6435 35.4412 29.4283 35.2662 26.1522C34.9987 21.1451 34.2696 23.3325 33.905 21.8743C33.7227 21.1453 35.7277 18.9577 35.2662 16.4519C35.3631 13.8537 36.4107 12.6263 36.8136 11.9757C41.3676 8.25063 44.843 20.0229 47.0297 18.2286C49.2164 16.4343 49.375 17.8556 49.5815 19.3224C49.7867 20.7797 47.8352 21.9412 47.0213 23.2654C46.3701 24.3247 48.1842 24.8705 48.8524 24.791L47.9203 27.2972C47.7586 28.1642 43.411 27.9931 44.0207 26.8405C44.4775 25.9769 43.8653 25.3667 43.2993 25.5107Z" fill="#F2DCCC"/>
<circle cx="37.9152" cy="18.2287" r="0.72915" fill="#9EAABC"/>
</svg>
