<svg width="19" height="24" viewBox="0 0 19 24" fill="none" xmlns="http://www.w3.org/2000/svg">
<path d="M16.0723 8.18457H14.9473V5.93457C14.9473 2.82957 12.4273 0.30957 9.32227 0.30957C6.21727 0.30957 3.69727 2.82957 3.69727 5.93457V8.18457H2.57227C1.33477 8.18457 0.322266 9.19707 0.322266 10.4346V21.6846C0.322266 22.9221 1.33477 23.9346 2.57227 23.9346H16.0723C17.3098 23.9346 18.3223 22.9221 18.3223 21.6846V10.4346C18.3223 9.19707 17.3098 8.18457 16.0723 8.18457ZM9.32227 18.3096C8.08477 18.3096 7.07227 17.2971 7.07227 16.0596C7.07227 14.8221 8.08477 13.8096 9.32227 13.8096C10.5598 13.8096 11.5723 14.8221 11.5723 16.0596C11.5723 17.2971 10.5598 18.3096 9.32227 18.3096ZM12.8098 8.18457H5.83477V5.93457C5.83477 4.01082 7.39852 2.44707 9.32227 2.44707C11.246 2.44707 12.8098 4.01082 12.8098 5.93457V8.18457Z" fill="#3463FF"/>
</svg>
