<svg width="21" height="21" viewBox="0 0 21 21" fill="none" xmlns="http://www.w3.org/2000/svg">
<path d="M7.375 20.9167C7.9503 20.9167 8.41667 20.4503 8.41667 19.875C8.41667 19.2997 7.9503 18.8333 7.375 18.8333V20.9167ZM1.125 17.7917H0.0833334H1.125ZM3.20833 1.125L3.20833 0.0833334L3.20833 1.125ZM7.375 2.16667C7.9503 2.16667 8.41667 1.7003 8.41667 1.125C8.41667 0.549703 7.9503 0.0833334 7.375 0.0833334V2.16667ZM13.9301 14.9718C13.5233 15.3786 13.5233 16.0381 13.9301 16.4449C14.3369 16.8517 14.9964 16.8517 15.4032 16.4449L13.9301 14.9718ZM19.875 10.5L20.6116 11.2366C20.8069 11.0412 20.9167 10.7763 20.9167 10.5C20.9167 10.2237 20.8069 9.95878 20.6116 9.76343L19.875 10.5ZM15.4032 4.5551C14.9964 4.1483 14.3369 4.1483 13.9301 4.5551C13.5233 4.96189 13.5233 5.62144 13.9301 6.02824L15.4032 4.5551ZM7.375 9.45833C6.7997 9.45833 6.33333 9.9247 6.33333 10.5C6.33333 11.0753 6.7997 11.5417 7.375 11.5417V9.45833ZM7.375 18.8333H3.20833V20.9167H7.375V18.8333ZM3.20833 18.8333C2.93207 18.8333 2.66711 18.7236 2.47176 18.5282L0.998625 20.0014C1.58467 20.5874 2.37953 20.9167 3.20833 20.9167V18.8333ZM2.47176 18.5282C2.27641 18.3329 2.16667 18.0679 2.16667 17.7917H0.0833334C0.0833334 18.6205 0.412573 19.4153 0.998625 20.0014L2.47176 18.5282ZM2.16667 17.7917V3.20833H0.0833334V17.7917H2.16667ZM2.16667 3.20833C2.16667 2.93207 2.27641 2.66711 2.47176 2.47176L0.998625 0.998625C0.412573 1.58468 0.0833334 2.37953 0.0833334 3.20833H2.16667ZM2.47176 2.47176C2.66711 2.27641 2.93207 2.16667 3.20833 2.16667L3.20833 0.0833334C2.37953 0.0833334 1.58468 0.412573 0.998625 0.998625L2.47176 2.47176ZM3.20833 2.16667H7.375V0.0833334H3.20833V2.16667ZM15.4032 16.4449L20.6116 11.2366L19.1384 9.76343L13.9301 14.9718L15.4032 16.4449ZM20.6116 9.76343L15.4032 4.5551L13.9301 6.02824L19.1384 11.2366L20.6116 9.76343ZM19.875 9.45833H7.375V11.5417H19.875V9.45833Z" fill="#3463FF"/>
</svg>
