<svg width="129" height="19" viewBox="0 0 129 19" fill="none" xmlns="http://www.w3.org/2000/svg">
<path d="M4.74789 7.59597H5.3959C5.99589 7.59597 6.4279 7.40797 6.6919 7.03197L10.6279 1.31997C10.8599 1.01597 11.1079 0.807974 11.3719 0.695975C11.6439 0.575975 11.9799 0.515975 12.3799 0.515975H15.9079L10.7239 7.58397C10.3559 8.07197 9.95989 8.42397 9.53589 8.63997C9.83989 8.75197 10.1159 8.90798 10.3639 9.10798C10.6119 9.30798 10.8439 9.56798 11.0599 9.88797L16.3399 18H12.7159C12.4839 18 12.2839 17.984 12.1159 17.952C11.9559 17.92 11.8159 17.872 11.6959 17.808C11.5759 17.744 11.4719 17.668 11.3839 17.58C11.2959 17.484 11.2119 17.376 11.1319 17.256L7.1719 11.172C7.02789 10.948 6.84389 10.792 6.61989 10.704C6.40389 10.608 6.10789 10.56 5.73189 10.56H4.74789V18H0.691895V0.515975H4.74789V7.59597Z" fill="#3463FF"/>
<path d="M35.2238 9.25198C35.2238 10.516 35.0038 11.692 34.5638 12.78C34.1318 13.868 33.5198 14.816 32.7278 15.624C31.9358 16.424 30.9798 17.052 29.8598 17.508C28.7478 17.964 27.5118 18.192 26.1518 18.192C24.7918 18.192 23.5518 17.964 22.4318 17.508C21.3118 17.052 20.3518 16.424 19.5518 15.624C18.7598 14.816 18.1438 13.868 17.7038 12.78C17.2718 11.692 17.0558 10.516 17.0558 9.25198C17.0558 7.98798 17.2718 6.81198 17.7038 5.72398C18.1438 4.63597 18.7598 3.69197 19.5518 2.89197C20.3518 2.09197 21.3118 1.46397 22.4318 1.00798C23.5518 0.551975 24.7918 0.323975 26.1518 0.323975C27.5118 0.323975 28.7478 0.555974 29.8598 1.01997C30.9798 1.47597 31.9358 2.10397 32.7278 2.90398C33.5198 3.70397 34.1318 4.64797 34.5638 5.73597C35.0038 6.82397 35.2238 7.99598 35.2238 9.25198ZM31.0718 9.25198C31.0718 8.38798 30.9598 7.61198 30.7358 6.92397C30.5118 6.22798 30.1878 5.63998 29.7638 5.15997C29.3478 4.67998 28.8358 4.31198 28.2278 4.05597C27.6198 3.79997 26.9278 3.67198 26.1518 3.67198C25.3678 3.67198 24.6678 3.79997 24.0518 4.05597C23.4438 4.31198 22.9278 4.67998 22.5038 5.15997C22.0878 5.63998 21.7678 6.22798 21.5438 6.92397C21.3198 7.61198 21.2078 8.38798 21.2078 9.25198C21.2078 10.124 21.3198 10.908 21.5438 11.604C21.7678 12.292 22.0878 12.876 22.5038 13.356C22.9278 13.836 23.4438 14.204 24.0518 14.46C24.6678 14.708 25.3678 14.832 26.1518 14.832C26.9278 14.832 27.6198 14.708 28.2278 14.46C28.8358 14.204 29.3478 13.836 29.7638 13.356C30.1878 12.876 30.5118 12.292 30.7358 11.604C30.9598 10.908 31.0718 10.124 31.0718 9.25198Z" fill="#3463FF"/>
<path d="M54.0746 0.515975V18H51.9626C51.6506 18 51.3866 17.952 51.1706 17.856C50.9626 17.752 50.7546 17.576 50.5466 17.328L42.3026 6.89997C42.3346 7.21197 42.3546 7.51597 42.3626 7.81197C42.3786 8.09997 42.3866 8.37198 42.3866 8.62798V18H38.8106V0.515975H40.9466C41.1226 0.515975 41.2706 0.523975 41.3906 0.539975C41.5106 0.555974 41.6186 0.587975 41.7146 0.635975C41.8106 0.675975 41.9026 0.735975 41.9906 0.815975C42.0786 0.895975 42.1786 1.00397 42.2906 1.13997L50.6066 11.64C50.5666 11.304 50.5386 10.98 50.5226 10.668C50.5066 10.348 50.4986 10.048 50.4986 9.76797V0.515975H54.0746Z" fill="#3463FF"/>
<path d="M73.9309 0.515975V18H71.8189C71.5069 18 71.2429 17.952 71.0269 17.856C70.8189 17.752 70.6109 17.576 70.4029 17.328L62.1589 6.89997C62.1909 7.21197 62.2109 7.51597 62.2189 7.81197C62.2349 8.09997 62.2429 8.37198 62.2429 8.62798V18H58.6669V0.515975H60.8029C60.9789 0.515975 61.1269 0.523975 61.2469 0.539975C61.3669 0.555974 61.4749 0.587975 61.5709 0.635975C61.6669 0.675975 61.7589 0.735975 61.8469 0.815975C61.9349 0.895975 62.0349 1.00397 62.1469 1.13997L70.4629 11.64C70.4229 11.304 70.3949 10.98 70.3789 10.668C70.3629 10.348 70.3549 10.048 70.3549 9.76797V0.515975H73.9309Z" fill="#3463FF"/>
<path d="M82.6031 3.63597V7.71597H88.0992V10.716H82.6031V14.88H89.7791V18H78.5231V0.515975H89.7791V3.63597H82.6031Z" fill="#3463FF"/>
<path d="M97.537 7.59597H98.185C98.785 7.59597 99.217 7.40797 99.481 7.03197L103.417 1.31997C103.649 1.01597 103.897 0.807974 104.161 0.695975C104.433 0.575975 104.769 0.515975 105.169 0.515975H108.697L103.513 7.58397C103.145 8.07197 102.749 8.42397 102.325 8.63997C102.629 8.75197 102.905 8.90798 103.153 9.10798C103.401 9.30798 103.633 9.56798 103.849 9.88797L109.129 18H105.505C105.273 18 105.073 17.984 104.905 17.952C104.745 17.92 104.605 17.872 104.485 17.808C104.365 17.744 104.261 17.668 104.173 17.58C104.085 17.484 104.001 17.376 103.921 17.256L99.961 11.172C99.817 10.948 99.633 10.792 99.409 10.704C99.193 10.608 98.897 10.56 98.521 10.56H97.537V18H93.481V0.515975H97.537V7.59597Z" fill="#3463FF"/>
<path d="M124.19 3.73198H119.27V18H115.214V3.73198H110.294V0.515975H124.19V3.73198Z" fill="#3463FF"/>
<path d="M125 14H129V18H125V14Z" fill="#3463FF"/>
</svg>
