<svg width="29" height="122" viewBox="0 0 29 122" fill="none" xmlns="http://www.w3.org/2000/svg">
<path d="M13.596 116.252V115.604C13.596 115.004 13.408 114.572 13.032 114.308L7.32 110.372C7.016 110.14 6.808 109.892 6.696 109.628C6.576 109.356 6.516 109.02 6.516 108.62V105.092L13.584 110.276C14.072 110.644 14.424 111.04 14.64 111.464C14.752 111.16 14.908 110.884 15.108 110.636C15.308 110.388 15.568 110.156 15.888 109.94L24 104.66V108.284C24 108.516 23.984 108.716 23.952 108.884C23.92 109.044 23.872 109.184 23.808 109.304C23.744 109.424 23.668 109.528 23.58 109.616C23.484 109.704 23.376 109.788 23.256 109.868L17.172 113.828C16.948 113.972 16.792 114.156 16.704 114.38C16.608 114.596 16.56 114.892 16.56 115.268V116.252H24V120.308H6.516V116.252H13.596ZM15.252 86.9761C16.516 86.9761 17.692 87.1961 18.78 87.6361C19.868 88.0681 20.816 88.6801 21.624 89.4721C22.424 90.2641 23.052 91.2201 23.508 92.3401C23.964 93.4521 24.192 94.6881 24.192 96.0481C24.192 97.4081 23.964 98.6481 23.508 99.7681C23.052 100.888 22.424 101.848 21.624 102.648C20.816 103.44 19.868 104.056 18.78 104.496C17.692 104.928 16.516 105.144 15.252 105.144C13.988 105.144 12.812 104.928 11.724 104.496C10.636 104.056 9.692 103.44 8.892 102.648C8.092 101.848 7.464 100.888 7.008 99.7681C6.552 98.6481 6.324 97.4081 6.324 96.0481C6.324 94.6881 6.556 93.4521 7.02 92.3401C7.476 91.2201 8.104 90.2641 8.904 89.4721C9.704 88.6801 10.648 88.0681 11.736 87.6361C12.824 87.1961 13.996 86.9761 15.252 86.9761ZM15.252 91.1281C14.388 91.1281 13.612 91.2401 12.924 91.4641C12.228 91.6881 11.64 92.0121 11.16 92.4361C10.68 92.8521 10.312 93.3641 10.056 93.9721C9.8 94.5801 9.672 95.2721 9.672 96.0481C9.672 96.8321 9.8 97.5321 10.056 98.1481C10.312 98.7561 10.68 99.2721 11.16 99.6961C11.64 100.112 12.228 100.432 12.924 100.656C13.612 100.88 14.388 100.992 15.252 100.992C16.124 100.992 16.908 100.88 17.604 100.656C18.292 100.432 18.876 100.112 19.356 99.6961C19.836 99.2721 20.204 98.7561 20.46 98.1481C20.708 97.5321 20.832 96.8321 20.832 96.0481C20.832 95.2721 20.708 94.5801 20.46 93.9721C20.204 93.3641 19.836 92.8521 19.356 92.4361C18.876 92.0121 18.292 91.6881 17.604 91.4641C16.908 91.2401 16.124 91.1281 15.252 91.1281ZM6.516 69.3252H24V71.4372C24 71.7492 23.952 72.0132 23.856 72.2292C23.752 72.4372 23.576 72.6452 23.328 72.8532L12.9 81.0972C13.212 81.0652 13.516 81.0452 13.812 81.0372C14.1 81.0212 14.372 81.0132 14.628 81.0132H24V84.5892H6.516V82.4532C6.516 82.2772 6.524 82.1292 6.54 82.0092C6.556 81.8892 6.588 81.7812 6.636 81.6852C6.676 81.5892 6.736 81.4972 6.816 81.4092C6.896 81.3212 7.004 81.2212 7.14 81.1092L17.64 72.7932C17.304 72.8332 16.98 72.8612 16.668 72.8772C16.348 72.8932 16.048 72.9012 15.768 72.9012H6.516L6.516 69.3252ZM6.516 50.669H24V52.781C24 53.093 23.952 53.357 23.856 53.573C23.752 53.781 23.576 53.989 23.328 54.197L12.9 62.441C13.212 62.409 13.516 62.389 13.812 62.381C14.1 62.365 14.372 62.357 14.628 62.357H24V65.933H6.516V63.797C6.516 63.621 6.524 63.473 6.54 63.353C6.556 63.233 6.588 63.125 6.636 63.029C6.676 62.933 6.736 62.841 6.816 62.753C6.896 62.665 7.004 62.565 7.14 62.453L17.64 54.137C17.304 54.177 16.98 54.205 16.668 54.221C16.348 54.237 16.048 54.245 15.768 54.245H6.516V50.669ZM9.636 43.1967H13.716V37.7007H16.716V43.1967H20.88V36.0208H24V47.2767H6.516L6.516 36.0208H9.636V43.1967ZM13.596 29.4629V28.8149C13.596 28.2149 13.408 27.7829 13.032 27.5189L7.32 23.5829C7.016 23.3509 6.808 23.1029 6.696 22.8389C6.576 22.5669 6.516 22.2309 6.516 21.8309V18.3029L13.584 23.4869C14.072 23.8549 14.424 24.2509 14.64 24.6749C14.752 24.3709 14.908 24.0949 15.108 23.8469C15.308 23.5989 15.568 23.3669 15.888 23.1509L24 17.8709V21.4949C24 21.7269 23.984 21.9269 23.952 22.0949C23.92 22.2549 23.872 22.3949 23.808 22.5149C23.744 22.6349 23.668 22.7389 23.58 22.8269C23.484 22.9149 23.376 22.9989 23.256 23.0789L17.172 27.0389C16.948 27.1829 16.792 27.3669 16.704 27.5909C16.608 27.8069 16.56 28.1029 16.56 28.4789V29.4629H24V33.5189H6.516V29.4629H13.596ZM9.732 4.00962V8.92962H24V12.9856H9.732V17.9056H6.516L6.516 4.00962H9.732Z" fill="white"/>
<rect x="20" y="4" width="4" height="4" transform="rotate(-90 20 4)" fill="white"/>
</svg>
