<svg width="455" height="447" viewBox="0 0 455 447" fill="none" xmlns="http://www.w3.org/2000/svg">
<path d="M454.969 345.902C454.969 349.675 451.535 353.438 444.698 356.302L253.326 436.321C239.558 442.072 216.94 442.072 203.063 436.321L10.4583 356.302C3.46522 353.404 0 349.563 0 345.756V351.439C0 355.235 3.51205 359.042 10.4583 361.917L203.079 441.926C216.956 447.687 239.574 447.687 253.341 441.926L444.713 361.906C451.597 359.031 455.031 355.167 455 351.427V345.891L454.969 345.902Z" fill="#C0C4C7"/>
<path d="M10.4583 356.3L203.079 436.309C216.956 442.071 239.574 442.071 253.341 436.309L444.713 356.289C451.55 353.425 454.969 349.663 454.984 345.889C455 342.116 451.519 338.241 444.541 335.344L251.921 255.335C238.044 249.573 215.426 249.573 201.643 255.335L10.271 335.355C3.43406 338.219 0.0156617 341.981 5.22647e-05 345.755C-0.0155572 349.528 3.46527 353.403 10.4583 356.3Z" fill="#EFF2F4"/>
<path d="M183.466 215.67C180.257 215.079 176.321 221.514 174.96 222.947C169.628 222.201 160.717 179.714 163.837 176.881C166.1 174.826 169.367 177.979 170.338 179.247L183.466 215.67Z" fill="#2BE28A"/>
<path d="M182.425 216.484C180.988 217.264 180.789 216.763 179.54 218.05C179.33 218.947 182.384 223.366 182.726 225.633C183.195 228.74 183.549 230.978 186.918 234.328C189.613 237.008 192.149 231.571 191.463 230.417C190.776 229.263 185.679 225.944 186.594 225.708C187.51 225.472 188.105 226.813 188.948 226.456C189.266 225.977 189.275 225.779 188.71 225.673C187.145 224.801 186.053 224.349 184.99 222.752C182.523 219.046 184.6 217.849 182.425 216.484Z" fill="#F2DCCC"/>
<path d="M160.617 148.574C166.43 146.807 170.975 149.106 171.19 151.511C159.351 156.448 164.858 164.039 160.176 165.65C156.34 166.97 150.165 161.841 154.774 152.737C150.034 152.849 145.193 147.909 150.155 143.477C159.471 135.156 160.617 148.574 160.617 148.574Z" fill="#F29F50"/>
<path d="M165.469 166.736C167.345 167.796 171.924 169.964 172.809 166.47C173.592 163.379 174.814 163.669 175.156 162.053C175.328 161.245 173.039 158.923 173.446 156.154C173.236 153.305 172.037 151.999 171.569 151.301C166.421 147.392 163.073 160.455 160.601 158.572C158.129 156.689 158.011 158.256 157.843 159.875C157.676 161.483 159.864 162.681 160.811 164.102C161.568 165.239 159.598 165.911 158.861 165.85L159.984 168.565C160.196 169.51 164.963 169.149 164.247 167.908C163.711 166.978 164.842 166.6 165.469 166.736Z" fill="#F2DCCC"/>
<circle r="0.801093" transform="matrix(-0.999344 0.0362084 0.036207 0.999344 170.61 158.21)" fill="#9EAABC"/>
<path d="M161.866 304.864C160.252 307.157 158.999 307.669 155.74 306.316C154.285 309.445 154.075 310.274 154.758 311.627C154.758 311.627 171.153 313.215 172.433 312.818C173.713 312.421 172.845 310.355 172.845 310.355C172.845 310.355 163.909 305.631 161.866 304.864Z" fill="#868686"/>
<path d="M160.844 298.235C159.206 298.38 158.163 298.954 155.993 297.721L156.607 304.184C158.062 305.242 158.819 305.658 160.239 304.83L160.844 298.235Z" fill="#F2DCCC"/>
<path d="M179.341 301.428C177.644 303.758 176.346 304.263 173.019 302.817C171.47 306.01 171.24 306.859 171.92 308.261C171.92 308.261 188.75 310.169 190.072 309.783C191.394 309.396 190.537 307.258 190.537 307.258C190.537 307.258 181.429 302.251 179.341 301.428Z" fill="#868686"/>
<path d="M177.558 295.069C175.055 295.304 173.804 295.586 172.143 295.071L173.558 301.621C175.386 302.59 176.306 302.95 177.671 301.899L177.558 295.069Z" fill="#F2DCCC"/>
<path d="M166.436 230.454L178.377 222.324C180.212 222.393 180.672 272.073 177.747 293.968C174.848 295.261 172.234 293.966 172.234 293.966C165.353 267.209 164.984 239.948 166.436 230.454Z" fill="#B8B8B8"/>
<path d="M150.668 226.102L166.294 228.814C169.149 228.921 163.823 274.915 160.898 296.809C158 298.102 155.91 296.809 155.91 296.809C151.857 268.624 149.216 235.597 150.668 226.102Z" fill="#C4C4C4" stroke="#E5E5E5" stroke-width="0.408076"/>
<path d="M159.527 169.482C161.618 170.982 163.136 170.901 165.045 169.387C165.6 168.947 166.469 169.296 166.484 170.003L166.562 173.759C170.003 174.982 179.107 197.363 180.26 219.753C180.787 229.977 151.116 233.366 149.439 230.862C146.271 226.131 147.12 179.894 158.198 173.935L158.119 170.162C158.104 169.457 158.953 169.07 159.527 169.482Z" fill="#9AE3C0"/>
<path d="M152.963 230.023C151.363 230.362 151.314 229.826 149.75 230.704C149.295 231.504 150.966 236.609 150.649 238.881C150.214 241.992 149.917 244.238 152.194 248.408C154.015 251.744 157.993 247.253 157.663 245.952C157.334 244.65 153.39 240.019 154.335 240.053C155.28 240.087 155.469 241.542 156.379 241.438C156.82 241.07 156.885 240.883 156.374 240.621C155.122 239.339 154.203 238.596 153.638 236.762C152.327 232.508 154.659 231.95 152.963 230.023Z" fill="#F2DCCC"/>
<path d="M156.289 227.785C153.558 225.997 147.439 230.408 145.63 231.203C141.001 228.453 149.677 183.063 153.65 181.657C156.532 180.638 158.325 184.811 158.729 186.355L156.289 227.785Z" fill="#2BE28A"/>
<path d="M289.354 161.338C295.113 164.594 295.286 175.145 287.772 180.346C283.042 185.079 284.564 184.118 283.821 186.089C283.226 187.666 280.783 187.617 279.186 185.786C279.704 183.683 280.07 182.872 277.332 182.834C274.595 182.795 274.314 179.299 274.516 177.556C273.866 177.192 272.299 176.806 272.997 175.798C273.695 174.79 274.715 172.271 274.916 171.435C274.809 168.589 273.426 166.487 275.892 161.696C276.898 159.742 282.156 157.267 289.354 161.338Z" fill="#D7BFAE"/>
<circle r="1.00184" transform="matrix(0.99787 0.0652281 -0.065174 0.997874 277.761 171.983)" fill="#896F66"/>
<path d="M252.02 231.389C255.852 231.643 258.895 239.803 260.13 241.756C266.442 242.439 285.963 199.422 283.026 195.439C280.896 192.55 276.404 195.087 274.993 196.203L252.02 231.389Z" fill="#FF534A"/>
<path d="M277.517 274.837C273.957 274.149 272.092 273.472 268.919 272.1C268.893 277.996 273.87 312.586 272.829 316.182C273.058 317.95 276.106 319.313 276.303 316.385C276.499 313.456 280.173 278.57 277.517 274.837Z" fill="#D7BFAE"/>
<path d="M288.689 276.219C285.162 275.298 283.966 276.273 280.898 275.782C280.487 282.385 283.56 316.866 283.438 318.83C283.316 320.794 285.207 320.483 286.913 319.018C286.656 298.808 291.291 280.688 288.689 276.219Z" fill="#D7BFAE"/>
<path d="M285.531 186.877C283.075 188.632 281.279 188.54 279.031 186.776C278.356 186.246 277.304 186.669 277.287 187.528L277.181 192.902C273.089 194.363 265.236 240.273 263.901 266.916C263.292 279.081 292.406 280.153 295.317 275.892C298.069 271.864 296.543 206.098 287.134 193.097L287.24 187.702C287.256 186.847 286.227 186.38 285.531 186.877Z" fill="#FB7B74"/>
<path d="M280.597 245.072C283.737 243.475 289.567 249.402 291.364 250.579C296.646 248.188 294.072 198.784 290.077 196.583C287.18 194.986 284.688 199.421 284.04 201.102L280.597 245.072Z" fill="#FF534A"/>
<path d="M289.57 196.859C287.747 195.051 289.438 196.708 286.467 193.998C285.707 193.244 285.217 186.87 284.179 186.067C283.821 183.564 286.828 177.438 286.828 177.438C288.157 177.433 291.226 175.72 289.398 173.742C288.474 172.727 287.141 174.006 286.776 174.852C287.138 173.273 287.614 172.201 286.211 171.688C284.809 171.174 275.812 172.943 275.297 164.687C274.775 165.742 274.864 166.919 274.559 168.055C274.559 168.055 270.267 161.888 280.966 158.951C289.554 157.093 291.502 163.408 291.502 163.408C291.502 163.408 294.273 163.814 294.686 169.708C295.099 175.602 290.627 196.552 292.006 200.631C291.082 199.627 290.154 197.417 289.57 196.859Z" fill="#4C403E"/>
<path d="M282.797 319.976C284.458 321.668 285.574 321.923 288.106 320.347C289.75 322.758 290.039 323.42 289.655 324.642C289.655 324.642 276.195 328.217 275.073 328.062C273.952 327.906 274.392 326.064 274.392 326.064C274.392 326.064 281.198 320.897 282.797 319.976Z" fill="#868686"/>
<path d="M271.162 317.368C272.539 319.423 273.634 319.899 276.534 318.771C277.755 321.56 277.924 322.295 277.294 323.474C277.294 323.474 262.804 324.546 261.684 324.17C260.563 323.795 261.37 321.991 261.37 321.991C261.37 321.991 269.344 318.004 271.162 317.368Z" fill="#868686"/>
<path d="M284.079 247.473C284.539 247.268 285.256 247.114 286.821 247.685C287.358 248.35 286.476 251.414 287.107 253.449C287.972 256.236 288.581 258.25 287.119 262.413C285.95 265.744 281.631 262.224 281.738 260.982C281.845 259.739 284.765 254.903 283.904 255.076C283.043 255.249 283.087 256.61 282.238 256.652C281.94 256.595 281.691 256.22 282.121 255.902C283.076 254.54 283.939 253.734 284.049 251.955C284.173 249.974 283.967 247.964 284.079 247.473Z" fill="#D7BFAE"/>
<path d="M254.107 234.539C254.577 234.721 255.191 235.122 255.887 236.635C255.793 237.485 254.096 237.925 253.095 239.805C251.725 242.382 250.723 244.232 246.737 246.125C243.549 247.64 243.008 242.094 243.965 241.296C244.923 240.497 250.413 239.166 249.684 238.676C248.955 238.186 248.02 239.177 247.392 238.603C247.223 238.351 247.314 237.91 247.842 237.992C249.482 237.711 250.662 237.756 252.003 236.583C253.497 235.275 253.679 234.805 254.107 234.539Z" fill="#D7BFAE"/>
<path d="M137.367 378.301C135.823 381.024 132.292 379.494 129.81 377.873C128.532 381.509 128.466 384.189 129.372 385.617C130.155 386.383 149.817 387.755 150.451 386.45C151.085 385.146 150.641 383.669 150.641 383.669C150.641 383.669 139.722 378.932 137.367 378.301Z" fill="#868686"/>
<path d="M136.64 369.97C134.122 371.027 132.906 370.189 131.016 370.195C130.743 371.222 130.903 372.701 131.44 377.11C133.799 378.601 135.191 378.163 136.263 376.631L136.64 369.97Z" fill="#CEAC99"/>
<path d="M113.129 363.199C115.512 364.534 117.153 364.298 119.029 364.518L117.817 371.34C116.959 372.106 115.033 372.54 113.772 370.84C113.469 367.487 113.006 365.284 113.129 363.199Z" fill="#CEAC99"/>
<path d="M118.244 271.453C117.034 272.136 116.858 271.713 115.814 272.823C115.648 273.588 118.304 277.3 118.625 279.222C119.066 281.856 119.397 283.752 122.305 286.552C124.632 288.792 126.712 284.138 126.113 283.167C125.514 282.196 121.138 279.446 121.912 279.233C122.687 279.02 123.211 280.151 123.922 279.836C124.186 279.425 124.191 279.257 123.71 279.175C122.368 278.455 121.434 278.086 120.509 276.744C118.362 273.629 120.11 272.583 118.244 271.453Z" fill="#F2DCCC"/>
<path d="M120.425 270.611C117.829 269.637 114.366 273.653 113.013 274.648C110.821 273.933 107.11 264.751 106.643 254.441C107.366 251.151 114.099 235.688 115.603 234.743C117.802 233.362 122.275 230.951 123.374 238.178L114.51 253.921L120.425 270.611Z" fill="#C22929"/>
<path d="M137.531 211.081C136.9 209.459 135.341 203.313 133.636 201.293C132.98 200.516 124.948 196.891 119.383 203.762C113.019 211.619 123.042 216.909 123.125 218.721C123.191 220.171 123.933 223.022 123.374 224.157C126.179 225.34 131.754 226.921 131.61 223.78C131.43 219.854 134.48 219.714 136.255 218.422C138.029 217.131 138.225 212.865 137.531 211.081Z" fill="#CEAC99"/>
<path d="M141.209 332.767C142.654 324.549 141.94 283.816 140.978 287.531L126.772 287.603C122.176 286.669 115.584 286.111 112.38 283.649C111.057 294.113 113.5 322.372 113.082 325.108C112.615 328.16 110.845 360.776 110.899 361.559C115.081 364.253 117.42 364.667 121.571 361.504C123.118 351.67 126.285 330.56 126.782 327.648C127.035 326.168 127.534 319.221 127.839 311.515L129.535 330.968C129.329 333.948 127.785 365.773 128.162 368.821C131.553 371.688 135.684 372.381 139.049 369.727C139.162 364.363 140.72 337.338 141.209 332.767Z" fill="#C4C4C4"/>
<path d="M143.997 288.3C144.113 284.239 145.117 235.5 132.05 231.323L132.266 227.658C132.295 227.161 131.873 226.756 131.376 226.78C127.42 226.97 124.211 226.028 122.694 225.472C122.202 225.292 121.64 225.576 121.535 226.089C121.353 226.974 121.095 228.295 120.934 229.425C110.741 235.288 112.02 241.156 109.424 285.666C113.052 295.868 143.754 296.791 143.997 288.3Z" fill="#FF534A"/>
<path d="M161.741 258.423C161.191 259.417 160.941 260.131 162.988 261.674C163.902 262.019 168.971 259.419 171.403 259.373C174.735 259.311 175.284 259.026 179.931 256.984C183.621 255.362 180.217 254.271 178.899 253.963C177.582 253.655 172.139 256.312 172.018 255.317C171.896 254.321 172.737 253.565 172.638 252.5C172.605 252.144 171.757 252.75 171.419 253.257C169.814 255.663 170.514 255.697 168.687 256.594C164.449 258.676 163.656 257.209 161.741 258.423Z" fill="#CEAC99"/>
<path d="M160.792 258.112C159.515 260.574 161.709 261.827 162.536 263.289C161.564 265.38 140.237 270.801 137.72 268.867C132.804 265.088 131.297 244.625 131.701 242.896C132.814 238.137 137.297 236.261 138.974 239.258C140.651 242.255 143.707 260.599 143.707 260.599L160.792 258.112Z" fill="#C22929"/>
<path d="M129.389 203.673C128.113 204.473 127.162 205.76 127.908 206.39C130.136 208.292 128.882 210.672 128.882 210.672L128.961 213.183C128.97 213.464 128.614 213.562 128.485 213.312C127.771 211.936 127.224 210.774 126.113 211.043C123.927 211.571 125.299 214.839 126.655 216.194C126.232 219.75 122.317 219.718 121.582 218.455C121.217 216.891 117.222 215.022 115.192 213.255C114.387 212.615 113.865 211.708 113.73 210.715C113.594 209.721 113.855 208.714 114.461 207.893C114.289 201.937 121.956 199.08 123.927 198.431C125.897 197.782 130.156 198.256 131.807 197.486C134.234 199.533 133.327 201.56 132.115 202.877C131.669 203.363 129.951 203.313 129.389 203.673Z" fill="#66332B"/>
<path d="M116.446 373.338C114.721 373.427 113.028 372.639 112.337 371.934C111.161 372.619 110.806 376.806 110.894 378.518C111.271 379.186 114.621 380.093 117.078 378.869C119.535 377.644 124.331 377.141 126.81 374.564C129.144 372.83 126.571 370.165 125.129 370.128C124.078 370.101 120.542 370.37 118.729 370.886C118.498 372.674 117.252 373.297 116.446 373.338Z" fill="#868686"/>
<circle cx="135.109" cy="209.622" r="0.813388" fill="#A87D73"/>
<path d="M246.316 104.155C246.483 105.004 246.483 105.877 246.316 106.727C246.316 106.795 246.316 106.875 246.316 106.944C246.232 107.275 246.136 107.618 246.016 107.95L245.86 108.304C245.733 108.594 245.589 108.876 245.429 109.15L245.177 109.562C244.997 109.813 244.818 110.076 244.614 110.328L244.266 110.751C244.043 110.995 243.803 111.235 243.547 111.471L243.128 111.871C242.84 112.122 242.529 112.363 242.205 112.603L241.762 112.934C241.27 113.266 240.755 113.597 240.192 113.917C231.719 118.616 217.937 118.616 209.404 113.917L209.2 113.792C208.755 113.55 208.323 113.287 207.906 113.003L207.582 112.763C207.234 112.523 206.899 112.271 206.599 112.02C206.522 111.961 206.45 111.896 206.384 111.825C206.073 111.562 205.777 111.283 205.497 110.991L205.377 110.854C205.096 110.555 204.832 110.242 204.586 109.916C204.338 109.58 204.114 109.229 203.915 108.864C203.332 107.807 203.027 106.63 203.028 105.435C203.028 105.435 203.028 105.355 203.028 105.229C203.028 105.103 203.028 105.16 203.028 105.126C203.028 105.092 203.028 104.978 203.028 104.909C203.151 102.723 202.941 100.532 202.405 98.4043C201.373 99.3049 200.54 100.392 199.953 101.603C199.367 102.814 199.039 104.125 198.989 105.458C198.989 105.698 198.989 105.949 199.061 106.189C199.049 106.403 199.049 106.616 199.061 106.83C199.091 106.92 199.115 107.011 199.133 107.104C199.201 107.445 199.293 107.781 199.409 108.11C199.409 108.259 199.529 108.407 199.588 108.567C199.648 108.727 199.816 109.104 199.948 109.367C200.08 109.63 200.14 109.699 200.236 109.87C200.382 110.126 200.542 110.374 200.715 110.614C200.828 110.785 200.952 110.949 201.087 111.105C201.272 111.356 201.472 111.596 201.686 111.825L202.141 112.305C202.381 112.545 202.633 112.774 202.896 113.014L203.4 113.449C203.711 113.7 204.047 113.94 204.382 114.18C204.718 114.42 204.694 114.42 204.874 114.535C205.414 114.901 205.974 115.241 206.551 115.552C207.151 115.895 207.75 116.204 208.433 116.501L209.092 116.775C209.488 116.935 209.883 117.107 210.291 117.255L210.47 117.324L210.914 117.484C211.429 117.667 211.956 117.838 212.484 117.998L213.023 118.158L214.054 118.421C214.581 118.547 215.108 118.684 215.648 118.787L216.247 118.913L216.714 118.993C217.17 119.084 217.625 119.153 218.08 119.222L218.716 119.313L219.243 119.382L220.525 119.519L221.724 119.61C222.155 119.61 222.599 119.61 223.03 119.679H224.228H225.643H226.769L228.507 119.565H228.974H229.418C230.4 119.462 231.383 119.336 232.342 119.176L233.313 118.982L234.739 118.696L235.458 118.513L235.757 118.433C236.201 118.319 236.644 118.204 237.076 118.067C237.711 117.884 238.274 117.69 238.933 117.461L239.149 117.381C239.712 117.175 240.264 116.947 240.803 116.707L241.27 116.501L242.169 116.044C242.445 115.906 242.732 115.781 243.008 115.621C243.084 115.586 243.156 115.543 243.224 115.495L244.003 115.015C244.314 114.82 244.626 114.637 244.913 114.432L245.213 114.214L245.656 113.872C245.92 113.677 246.184 113.483 246.423 113.277L246.819 112.9C247.059 112.683 247.31 112.465 247.526 112.237L247.682 112.065L248.029 111.642C248.209 111.437 248.401 111.231 248.557 111.014L248.653 110.899C248.784 110.716 248.88 110.522 249 110.339C249.12 110.156 249.216 110.008 249.312 109.836C249.408 109.665 249.563 109.345 249.683 109.093V109.024C249.755 108.83 249.851 108.647 249.923 108.464C250.003 108.232 250.071 107.995 250.127 107.756V107.687C250.127 107.493 250.234 107.298 250.27 107.093C250.306 106.887 250.342 106.601 250.366 106.361C250.442 104.896 250.175 103.433 249.585 102.078C248.994 100.723 248.094 99.5115 246.951 98.5301C246.494 100.372 246.281 102.262 246.316 104.155Z" fill="#FFB649"/>
<path d="M250.281 106.965C250.281 107.159 250.185 107.342 250.137 107.525V107.593C250.082 107.833 250.014 108.069 249.933 108.302C249.861 108.485 249.777 108.656 249.705 108.839V108.908C249.586 109.159 249.478 109.4 249.334 109.651C249.238 109.811 249.118 109.971 249.022 110.131C248.926 110.291 248.807 110.508 248.675 110.691L248.579 110.806C248.435 111 248.255 111.194 248.088 111.389L247.74 111.812L247.584 111.983C247.38 112.2 247.141 112.406 246.901 112.623L246.506 113.001C246.266 113.206 246.002 113.401 245.739 113.595L245.319 113.915L245.019 114.132C244.732 114.338 244.42 114.521 244.109 114.715L243.342 115.184C243.274 115.233 243.202 115.275 243.126 115.31C242.85 115.47 242.563 115.596 242.287 115.733L241.388 116.19L240.921 116.396C240.382 116.636 239.83 116.864 239.267 117.07L239.051 117.15C238.44 117.379 237.853 117.573 237.194 117.756C236.762 117.893 236.319 118.008 235.875 118.122L235.588 118.202L234.869 118.385L233.443 118.671C233.119 118.739 232.807 118.808 232.472 118.854C231.513 119.014 230.53 119.139 229.548 119.242H229.104H228.637L226.899 119.357H225.785H224.37H223.172C222.74 119.357 222.297 119.357 221.866 119.288L220.667 119.197L219.385 119.059L218.87 118.991L218.234 118.899C217.779 118.831 217.324 118.762 216.868 118.671L216.401 118.591L215.802 118.465C215.262 118.362 214.735 118.225 214.208 118.099L213.177 117.836L212.638 117.676C212.11 117.516 211.583 117.345 211.068 117.162L210.624 117.002L210.445 116.933L209.246 116.453L208.587 116.179C207.94 115.881 207.305 115.573 206.705 115.23C206.092 114.996 205.492 114.733 204.908 114.441C204.728 114.327 204.584 114.201 204.416 114.087C204.249 113.972 203.745 113.606 203.434 113.355L202.93 112.92C202.667 112.68 202.415 112.452 202.175 112.212L201.72 111.732C201.506 111.502 201.306 111.262 201.121 111.011C200.986 110.855 200.862 110.691 200.749 110.52C200.576 110.28 200.416 110.032 200.27 109.777C200.174 109.605 200.066 109.445 199.982 109.274C199.898 109.102 199.731 108.737 199.623 108.474C199.515 108.211 199.491 108.165 199.443 108.016C199.327 107.687 199.235 107.351 199.167 107.01C199.149 106.918 199.125 106.826 199.095 106.736C199.083 106.534 199.083 106.332 199.095 106.13C199.095 105.89 199.023 105.639 199.023 105.398V124.032C199.023 127.69 201.54 131.36 206.621 134.161C207.233 134.492 207.82 134.812 208.515 135.098C208.731 135.201 208.958 135.281 209.174 135.373C209.39 135.464 209.941 135.715 210.373 135.864L210.576 135.933L211.032 136.093C211.535 136.276 212.062 136.436 212.59 136.596L213.141 136.756L213.501 136.87L214.16 137.019C214.591 137.133 215.023 137.224 215.454 137.327L215.766 137.396L216.185 137.499L216.832 137.602L218.198 137.83L218.738 137.922C218.941 137.922 219.145 137.922 219.349 137.99L220.631 138.128H221.242H221.818L223.124 138.196C223.352 138.196 223.567 138.196 223.783 138.196H226.42H226.839C227.414 138.196 228.038 138.139 228.577 138.093H229.284H229.488C230.482 138.002 231.453 137.865 232.424 137.705H232.568L233.395 137.533L234.21 137.362L234.809 137.236L235.827 136.984L237.158 136.619L237.433 136.539C237.973 136.379 238.488 136.196 239.003 136.013L239.219 135.933C239.782 135.715 240.334 135.498 240.873 135.258L241.352 135.041C241.939 134.767 242.551 134.481 243.09 134.172L243.402 134.001L244.061 133.578C244.372 133.383 244.696 133.189 244.984 132.983C245.233 132.816 245.473 132.637 245.703 132.446C245.978 132.24 246.254 132.034 246.494 131.817L246.661 131.692C246.985 131.406 247.296 131.108 247.584 130.8L247.752 130.617L248.255 130.057L248.603 129.611L248.723 129.439C248.926 129.167 249.114 128.885 249.286 128.593L249.382 128.399C249.526 128.148 249.633 127.896 249.753 127.645C249.835 127.501 249.907 127.352 249.969 127.199C249.974 127.146 249.974 127.092 249.969 127.039C250.065 126.799 250.125 126.547 250.197 126.307C250.269 126.067 250.305 125.976 250.341 125.816C250.376 125.656 250.341 125.724 250.341 125.678C250.341 125.415 250.341 125.164 250.424 124.901C250.457 124.735 250.477 124.567 250.484 124.398C250.484 124.329 250.484 124.261 250.484 124.181V105.558C250.484 105.787 250.484 106.016 250.484 106.244C250.353 106.439 250.329 106.725 250.281 106.965Z" fill="#FFB649"/>
<path d="M224.661 0.0571596C213.863 0.0491207 203.345 3.33588 194.644 9.43709C185.944 15.5383 179.518 24.134 176.304 33.968C173.091 43.8019 173.259 54.3584 176.785 64.0945C180.31 73.8306 187.008 82.2359 195.899 88.0818C199.126 90.7754 201.372 94.3787 202.31 98.3704C202.847 100.498 203.057 102.69 202.934 104.875C202.934 104.944 202.934 105.024 202.934 105.092C202.934 105.161 202.934 105.161 202.934 105.195C202.934 105.321 202.934 105.401 202.934 105.401C202.933 106.596 203.237 107.773 203.82 108.831C204.019 109.195 204.244 109.546 204.492 109.882C204.738 110.208 205.002 110.521 205.283 110.82L205.402 110.957C205.683 111.249 205.979 111.528 206.289 111.791C206.355 111.862 206.427 111.927 206.505 111.986C206.805 112.237 207.14 112.489 207.488 112.729L207.811 112.969C208.228 113.253 208.66 113.516 209.106 113.758L209.309 113.883C217.842 118.582 231.624 118.582 240.097 113.883C240.66 113.563 241.176 113.232 241.667 112.9L242.111 112.569C242.434 112.329 242.746 112.089 243.033 111.837L243.453 111.437C243.7 111.201 243.94 110.961 244.172 110.717L244.519 110.294C244.723 110.042 244.915 109.779 245.083 109.528L245.334 109.116C245.495 108.842 245.639 108.56 245.766 108.27L245.922 107.916C246.041 107.584 246.137 107.241 246.221 106.91C246.221 106.841 246.221 106.761 246.221 106.693C246.389 105.843 246.389 104.97 246.221 104.121C246.174 102.166 246.392 100.214 246.868 98.3133C247.808 94.3195 250.059 90.7156 253.292 88.0247C262.183 82.1788 268.881 73.7735 272.406 64.0373C275.931 54.3012 276.1 43.7447 272.886 33.9108C269.673 24.0769 263.247 15.4812 254.546 9.37994C245.846 3.27874 235.328 -0.00802422 224.529 1.47114e-05L224.661 0.0571596ZM182.836 48.0706C182.83 41.7095 184.42 35.4393 187.472 29.7835C190.524 24.1277 194.95 19.2503 200.38 15.5583C205.811 11.8663 212.088 9.46673 218.689 8.55996C225.289 7.6532 232.022 8.26549 238.323 10.3458C231.217 13.5874 224.904 18.2166 219.792 23.9335C214.68 29.6505 210.884 36.3277 208.649 43.5329C206.415 50.7382 205.791 58.3108 206.82 65.7604C207.848 73.2101 210.505 80.3706 214.618 86.7786C205.546 84.638 197.487 79.6607 191.726 72.6407C185.965 65.6207 182.835 56.9626 182.836 48.0477V48.0706Z" fill="#FCE484"/>
<path d="M206.334 58.7609C206.333 48.6344 209.337 38.7144 214.997 30.1474C220.657 21.5803 228.743 14.7159 238.32 10.3473C232.977 8.57779 227.312 7.8605 221.67 8.23883C216.028 8.61717 210.524 10.0833 205.493 12.5485C200.461 15.0137 196.006 18.4267 192.397 22.5812C188.788 26.7357 186.1 31.5454 184.496 36.7193C182.891 41.8931 182.403 47.3237 183.062 52.6825C183.72 58.0413 185.511 63.217 188.327 67.8966C191.142 72.5762 194.924 76.6625 199.442 79.9082C203.961 83.154 209.122 85.4917 214.615 86.7801C209.184 78.3535 206.317 68.6524 206.334 58.7609Z" fill="white"/>
<path d="M276.221 283.507C277.035 285.161 278.605 284.927 277.56 287.215C277.111 287.287 275.109 288.474 273.433 289.086C271.309 289.862 271.425 291.852 268.635 295.775C266.403 298.914 262.892 293.757 263.377 292.478C263.862 291.198 268.444 288.445 268.444 288.445C266.395 288.269 266.111 288.298 265.201 288.061C264.797 287.621 264.753 287.421 265.301 287.228C267.21 287.364 268.551 286.998 270.46 286.827C273.706 285.734 274.276 285.23 276.203 283.524L276.221 283.507Z" fill="#F2DCCC"/>
<path d="M301.584 370.239C303.622 370.544 303.942 370.968 306.065 370.198L305.167 376.024C303.741 376.761 303.017 377.024 301.855 376.081L301.584 370.239Z" fill="#F2DCCC"/>
<path d="M300.799 375.927C302.344 377.971 303.505 378.4 306.44 377.063C307.867 379.877 308.084 380.628 307.502 381.885C307.502 381.885 292.573 383.842 291.391 383.519C290.21 383.197 290.939 381.283 290.939 381.283C290.939 381.283 298.956 376.691 300.799 375.927Z" fill="#868686"/>
<path d="M314.254 374.455C316.311 374.587 316.666 374.983 318.716 374.036L318.312 379.917C316.954 380.772 316.254 381.096 315.016 380.254L314.254 374.455Z" fill="#F2DCCC"/>
<path d="M313.682 379.948C315.227 381.993 316.388 382.422 319.323 381.085C320.749 383.899 320.967 384.65 320.385 385.906C320.385 385.906 305.456 387.864 304.274 387.541C303.093 387.218 303.822 385.304 303.822 385.304C303.822 385.304 311.839 380.712 313.682 379.948Z" fill="#868686"/>
<path d="M293.627 291.967L307.498 297.207C306.102 308.36 308.04 340.39 308.264 368.158C306.506 369.356 300.049 371.395 298.185 367.983C295.93 363.856 293.318 310.635 293.627 291.967Z" fill="#C4C4C4"/>
<path d="M305.217 295.676L321.081 293.433C321.845 316.632 319.514 338.525 320.378 371.669C319.492 372.187 315.776 377.349 311.438 373.185C309.389 371.217 304.636 314.397 305.217 295.676Z" fill="#C4C4C4" stroke="#EFF2F4" stroke-width="0.64114"/>
<path d="M275.959 282.176C278.399 283.112 279.048 288.961 279.535 290.544C281.431 290.748 292.129 282.794 298.845 271.308C302.483 265.087 309.251 242.937 308.599 241.269C307.686 238.934 303.498 241.027 302.42 241.979C302.42 241.979 294.541 261.001 293.085 263.729C290.659 268.277 274.671 281.681 275.959 282.176Z" fill="#3463FF"/>
<path d="M311.914 205.224C317.615 207.391 319.61 217.63 313.486 223.415C309.833 228.387 311.023 228.528 310.619 230.428C310.297 231.948 308.063 232.243 306.353 230.797C306.533 228.808 306.284 227.151 303.784 227.497C301.283 227.843 300.541 224.696 300.483 223.079C299.84 222.837 298.357 222.704 298.854 221.688C299.35 220.672 299.929 218.234 299.996 217.445C299.502 214.865 297.58 212.495 299.161 207.786C299.806 205.865 304.787 202.515 311.914 205.224Z" fill="#F2DCCC"/>
<path d="M311.556 231.676C309.687 233.419 306.847 233.281 305.101 231.49C304.924 231.309 304.563 231.441 304.58 231.694L304.982 237.931C301.785 239.078 294.042 268.141 292.422 290.386C291.917 297.321 318.583 301.946 321.896 295.174C320.718 282.017 322.698 246.512 312.675 238.273L312.016 231.833C311.993 231.616 311.715 231.527 311.556 231.676Z" fill="#678AFF"/>
<path d="M320.58 303.672C322.566 301.569 327.902 306.044 329.426 306.811C332.822 303.552 318.483 243.224 315.172 241.91C312.77 240.958 311.782 245.612 311.622 247.32L320.58 303.672Z" fill="#3463FF"/>
<path d="M322.581 303.925C324.2 303.967 325.1 304.082 326.533 306.081C326.423 306.516 326.121 307.23 325.985 309.014C325.812 311.274 327.44 312.095 329.525 316.415C331.193 319.87 325.78 320.61 324.942 319.582C324.104 318.553 323.617 313.176 323.617 313.176C322.714 314.926 322.631 315.193 322.104 315.896C321.603 316.053 321.428 316 321.478 315.419C322.297 313.776 322.505 312.407 323.08 310.621C323.418 307.21 323.228 306.467 322.587 303.95L322.581 303.925Z" fill="#F2DCCC"/>
<path d="M312.958 221.47C317.947 220.509 316.989 216.925 314.9 216.713C312.811 216.501 311.984 218.825 311.984 218.825C310.531 217.497 310.933 213.247 311.31 210.467C304.161 210.673 301.366 208.217 300.504 206.429C299.607 207.165 298.864 208.043 298.312 209.022C298.775 201.727 305.185 201.958 307.436 203.435C320.162 201.996 319.656 209.092 319.656 209.092C323.66 211.005 318.551 218.557 317.598 219.491C316.304 221.828 314.507 223.957 313.807 223.372C313.52 223.132 313.294 222.837 313.148 222.508C313.001 222.179 312.936 221.824 312.958 221.47Z" fill="#BA654B"/>
<circle r="0.923563" transform="matrix(-0.999864 -0.0164695 -0.0164731 0.999864 304.479 217.074)" fill="#97A4C5"/>
</svg>
