<svg width="16" height="17" viewBox="0 0 16 17" fill="none" xmlns="http://www.w3.org/2000/svg">
<path d="M1.25994 1.26992C-0.355534 2.89815 -0.417475 5.50815 1.07393 7.21164L1.06794 7.21767L9.86893 16.0883C11.0751 17.3039 13.0376 17.3039 14.2436 16.0883C15.4498 14.8728 15.4498 12.8949 14.2436 11.6792L5.75499 3.12337C5.02289 2.38529 3.83135 2.38529 3.09906 3.12337C2.36696 3.86124 2.36696 5.06238 3.09906 5.80046L8.46301 11.2068C8.72197 11.4678 9.14146 11.4678 9.40042 11.2068C9.65937 10.9458 9.65937 10.5228 9.40042 10.262L4.03647 4.85565C3.82093 4.6386 3.82093 4.28542 4.03647 4.06818C4.25181 3.85133 4.60223 3.85133 4.81758 4.06818L13.3064 12.624C13.9954 13.3187 13.9954 14.4488 13.3064 15.1435C12.6171 15.838 11.4958 15.838 10.8065 15.1435L2.19735 6.46657C1.03437 5.29421 1.03437 3.38709 2.19735 2.21492C3.36052 1.04256 5.25271 1.04256 6.41569 2.21492L14.8686 10.7344C15.1275 10.9954 15.547 10.9954 15.8058 10.7344C16.0647 10.4734 16.0647 10.0505 15.8058 9.78955L7.1611 1.0764L7.15512 1.08224C5.46496 -0.420746 2.87542 -0.358313 1.25994 1.26992Z" fill="#C0C0C0"/>
</svg>
