<svg width="40" height="40" viewBox="0 0 40 40" fill="none" xmlns="http://www.w3.org/2000/svg">
<rect width="40" height="40" rx="3" fill="white"/>
<path d="M13.2599 13.2699C11.6445 14.8982 11.5825 17.5081 13.0739 19.2116L13.0679 19.2177L21.8689 28.0883C23.0751 29.3039 25.0376 29.3039 26.2436 28.0883C27.4498 26.8728 27.4498 24.8949 26.2436 23.6792L17.755 15.1234C17.0229 14.3853 15.8314 14.3853 15.0991 15.1234C14.367 15.8612 14.367 17.0624 15.0991 17.8005L20.463 23.2068C20.722 23.4678 21.1415 23.4678 21.4004 23.2068C21.6594 22.9458 21.6594 22.5228 21.4004 22.262L16.0365 16.8556C15.8209 16.6386 15.8209 16.2854 16.0365 16.0682C16.2518 15.8513 16.6022 15.8513 16.8176 16.0682L25.3064 24.624C25.9954 25.3187 25.9954 26.4488 25.3064 27.1435C24.6171 27.838 23.4958 27.838 22.8065 27.1435L14.1974 18.4666C13.0344 17.2942 13.0344 15.3871 14.1974 14.2149C15.3605 13.0426 17.2527 13.0426 18.4157 14.2149L26.8686 22.7344C27.1275 22.9954 27.547 22.9954 27.8058 22.7344C28.0647 22.4734 28.0647 22.0505 27.8058 21.7895L19.1611 13.0764L19.1551 13.0822C17.465 11.5793 14.8754 11.6417 13.2599 13.2699Z" fill="#C0C0C0"/>
</svg>
