<svg width="24" height="25" viewBox="0 0 24 25" fill="none" xmlns="http://www.w3.org/2000/svg">
<path d="M1.33333 0C0.979711 0 0.640573 0.141749 0.390524 0.394064C0.140476 0.646378 0 0.988591 0 1.34542C0 7.41147 2.38809 13.2291 6.63891 17.5184C10.8897 21.8078 16.6551 24.2175 22.6667 24.2175C23.0203 24.2175 23.3594 24.0758 23.6095 23.8235C23.8595 23.5711 24 23.2289 24 22.8721V18.1631C24 17.8063 23.8595 17.4641 23.6095 17.2118C23.3594 16.9595 23.0203 16.8177 22.6667 16.8177C21.0133 16.8177 19.4 16.5486 17.9067 16.0508C17.44 15.9028 16.92 16.0105 16.5467 16.3872L13.6133 19.3471C9.84 17.4097 6.76 14.2883 4.82667 10.4808L7.76 7.50743C8.13333 7.14417 8.24 6.61945 8.09333 6.14856C7.6 4.64169 7.33333 3.01374 7.33333 1.34542C7.33333 0.988591 7.19286 0.646378 6.94281 0.394064C6.69276 0.141749 6.35362 0 6 0H1.33333Z" fill="white"/>
</svg>
