<svg width="68" height="68" viewBox="0 0 68 68" fill="none" xmlns="http://www.w3.org/2000/svg">
<path d="M53.7636 8.43018H14.0969C10.9673 8.43018 8.43022 10.9672 8.43022 14.0968V53.7635C8.43022 56.8931 10.9673 59.4302 14.0969 59.4302H53.7636C56.8932 59.4302 59.4302 56.8931 59.4302 53.7635V14.0968C59.4302 10.9672 56.8932 8.43018 53.7636 8.43018Z" fill="#FFEEED"/>
<path d="M26.7878 25.8513C26.5394 25.8513 26.3012 25.95 26.1255 26.1257C25.9498 26.3013 25.8512 26.5395 25.8512 26.788C25.8512 31.011 27.5287 35.061 30.5149 38.0471C33.501 41.0332 37.551 42.7108 41.774 42.7108C42.0224 42.7108 42.2607 42.6121 42.4363 42.4365C42.612 42.2608 42.7107 42.0226 42.7107 41.7742V38.4959C42.7107 38.2475 42.612 38.0093 42.4363 37.8336C42.2607 37.658 42.0224 37.5593 41.774 37.5593C40.6126 37.5593 39.4793 37.372 38.4302 37.0254C38.1024 36.9224 37.7371 36.9973 37.4749 37.2596L35.4143 39.3202C32.7636 37.9714 30.5999 35.7984 29.2418 33.1477L31.3024 31.0778C31.5647 30.8249 31.6396 30.4596 31.5366 30.1318C31.19 29.0827 31.0027 27.9494 31.0027 26.788C31.0027 26.5395 30.904 26.3013 30.7283 26.1257C30.5527 25.95 30.3145 25.8513 30.066 25.8513H26.7878Z" fill="#FF534A"/>
</svg>
