<svg width="19" height="18" viewBox="0 0 19 18" fill="none" xmlns="http://www.w3.org/2000/svg">
<path d="M10.6665 1C10.6665 0.447715 10.2188 0 9.6665 0C9.11422 0 8.6665 0.447715 8.6665 1H10.6665ZM8.6665 17C8.6665 17.5523 9.11422 18 9.6665 18C10.2188 18 10.6665 17.5523 10.6665 17H8.6665ZM1.6665 8C1.11422 8 0.666504 8.44772 0.666504 9C0.666504 9.55228 1.11422 10 1.6665 10V8ZM17.6665 10C18.2188 10 18.6665 9.55228 18.6665 9C18.6665 8.44772 18.2188 8 17.6665 8V10ZM8.6665 1V17H10.6665V1H8.6665ZM1.6665 10H17.6665V8H1.6665V10Z" fill="#BBBBBB"/>
</svg>
