<svg width="24" height="25" viewBox="0 0 24 25" fill="none" xmlns="http://www.w3.org/2000/svg">
<path d="M8.4 12.482C7.572 12.482 6.9 13.154 6.9 13.982C6.9 14.81 7.572 15.482 8.4 15.482C9.228 15.482 9.9 14.81 9.9 13.982C9.9 13.154 9.228 12.482 8.4 12.482ZM15.6 12.482C14.772 12.482 14.1 13.154 14.1 13.982C14.1 14.81 14.772 15.482 15.6 15.482C16.428 15.482 17.1 14.81 17.1 13.982C17.1 13.154 16.428 12.482 15.6 12.482ZM12 0.781982C5.376 0.781982 0 6.15798 0 12.782C0 19.406 5.376 24.782 12 24.782C18.624 24.782 24 19.406 24 12.782C24 6.15798 18.624 0.781982 12 0.781982ZM12 22.382C6.708 22.382 2.4 18.074 2.4 12.782C2.4 12.434 2.424 12.086 2.46 11.75C5.292 10.49 7.536 8.17398 8.712 5.30598C10.884 8.37798 14.46 10.382 18.504 10.382C19.44 10.382 20.34 10.274 21.204 10.07C21.456 10.922 21.6 11.834 21.6 12.782C21.6 18.074 17.292 22.382 12 22.382Z" fill="#3463FF"/>
</svg>
