<svg width="19" height="16" viewBox="0 0 19 16" fill="none" xmlns="http://www.w3.org/2000/svg">
<mask id="path-1-inside-1" fill="white">
<path fill-rule="evenodd" clip-rule="evenodd" d="M8.74533 0L0 7.32905L8.74533 14.3845V10.1207C9.59555 10.0372 14.3887 9.86187 17.5638 15.9996H18.1084C18.1084 15.9996 18.8175 4.43656 8.74533 4.34416V0Z"/>
</mask>
<path d="M0 7.32905L-0.963475 6.17939L-2.36159 7.35108L-0.941852 8.49648L0 7.32905ZM8.74533 0H10.2453V-3.21418L7.78186 -1.14966L8.74533 0ZM8.74533 14.3845L7.80348 15.5519L10.2453 17.5219V14.3845H8.74533ZM8.74533 10.1207L8.59886 8.62783L7.24533 8.76063V10.1207H8.74533ZM17.5638 15.9996L16.2315 16.6888L16.6509 17.4996H17.5638V15.9996ZM18.1084 15.9996V17.4996H19.5192L19.6056 16.0915L18.1084 15.9996ZM8.74533 4.34416H7.24533V5.83046L8.73157 5.8441L8.74533 4.34416ZM0.963475 8.4787L9.70881 1.14966L7.78186 -1.14966L-0.963475 6.17939L0.963475 8.4787ZM9.68718 13.2171L0.941852 6.16161L-0.941852 8.49648L7.80348 15.5519L9.68718 13.2171ZM7.24533 10.1207V14.3845H10.2453V10.1207H7.24533ZM8.89181 11.6135C9.15915 11.5873 10.3016 11.5234 11.703 12.1107C13.0722 12.6844 14.8017 13.9249 16.2315 16.6888L18.8961 15.3104C17.1508 11.9366 14.8962 10.1959 12.8624 9.34375C10.861 8.50509 9.18173 8.57064 8.59886 8.62783L8.89181 11.6135ZM17.5638 17.4996H18.1084V14.4996H17.5638V17.4996ZM18.1084 15.9996C19.6056 16.0915 19.6056 16.0908 19.6057 16.0901C19.6057 16.0898 19.6057 16.089 19.6058 16.0884C19.6058 16.0872 19.6059 16.0858 19.606 16.0842C19.6062 16.0811 19.6064 16.0773 19.6066 16.0728C19.6071 16.0637 19.6077 16.0518 19.6084 16.0373C19.6098 16.0082 19.6115 15.9682 19.6131 15.9182C19.6163 15.818 19.6193 15.6772 19.6192 15.5013C19.6189 15.15 19.606 14.6562 19.5566 14.0663C19.4585 12.8951 19.2131 11.3023 18.6095 9.68268C18.0055 8.06232 17.0193 6.35331 15.4035 5.04023C13.7667 3.71005 11.5859 2.87016 8.75909 2.84422L8.73157 5.8441C10.9409 5.86437 12.4485 6.50451 13.5115 7.36839C14.5956 8.24937 15.3206 9.44846 15.7984 10.7304C16.2765 12.0131 16.4833 13.3168 16.567 14.3166C16.6085 14.8122 16.6189 15.2225 16.6192 15.5039C16.6193 15.6444 16.6169 15.752 16.6147 15.8214C16.6135 15.856 16.6125 15.881 16.6118 15.8956C16.6114 15.903 16.6112 15.9077 16.6111 15.9098C16.611 15.9108 16.611 15.9111 16.611 15.9108C16.611 15.9107 16.611 15.9103 16.6111 15.9098C16.6111 15.9096 16.6111 15.9091 16.6111 15.909C16.6112 15.9084 16.6112 15.9078 18.1084 15.9996ZM7.24533 0V4.34416H10.2453V0H7.24533Z" fill="#BBBBBB" mask="url(#path-1-inside-1)"/>
</svg>
