<svg width="91" height="88" viewBox="0 0 91 88" fill="none" xmlns="http://www.w3.org/2000/svg">
<circle cx="40.2839" cy="47.5" r="40" fill="#3463FF" fill-opacity="0.1"/>
<path d="M67.5034 34.3295C75.3701 34.3295 81.7473 27.9523 81.7473 20.0856C81.7473 12.219 75.3701 5.8418 67.5034 5.8418C59.6368 5.8418 53.2596 12.219 53.2596 20.0856C53.2596 27.9523 59.6368 34.3295 67.5034 34.3295Z" stroke="#56E8A2" stroke-width="3.56096" stroke-linecap="round" stroke-linejoin="round"/>
<path d="M85.3083 37.8896L77.5632 30.1445" stroke="#56E8A2" stroke-width="3.56096" stroke-linecap="round" stroke-linejoin="round"/>
<path d="M53.0125 62.7747V59.3804C53.0125 57.5799 52.2972 55.8532 51.0241 54.5801C49.751 53.307 48.0243 52.5918 46.2239 52.5918H34.3439C32.5434 52.5918 30.8167 53.307 29.5436 54.5801C28.2705 55.8532 27.5553 57.5799 27.5553 59.3804V62.7747" stroke="#3463FF" stroke-width="3.39429" stroke-linecap="round" stroke-linejoin="round"/>
<path d="M40.2838 45.8027C44.033 45.8027 47.0724 42.7634 47.0724 39.0142C47.0724 35.2649 44.033 32.2256 40.2838 32.2256C36.5346 32.2256 33.4952 35.2649 33.4952 39.0142C33.4952 42.7634 36.5346 45.8027 40.2838 45.8027Z" stroke="#3463FF" stroke-width="3.39429" stroke-linecap="round" stroke-linejoin="round"/>
</svg>
