<svg width="20" height="20" viewBox="0 0 20 20" fill="none" xmlns="http://www.w3.org/2000/svg">
<mask id="path-1-inside-1" fill="white">
<path fill-rule="evenodd" clip-rule="evenodd" d="M19.5 0.5L0 9.13635L10.8334 9.13623L10.8333 19.5L19.5 0.5Z"/>
</mask>
<path fill-rule="evenodd" clip-rule="evenodd" d="M19.5 0.5L0 9.13635L10.8334 9.13623L10.8333 19.5L19.5 0.5Z" fill="#3463FF"/>
<path d="M0 9.13635L-0.404951 8.22201L1.1268e-05 10.1364L0 9.13635ZM19.5 0.5L20.4098 0.915005L21.5026 -1.4806L19.095 -0.414338L19.5 0.5ZM10.8334 9.13623L11.8334 9.13624L11.8334 8.13622L10.8334 8.13623L10.8334 9.13623ZM10.8333 19.5L9.83333 19.5L11.7432 19.915L10.8333 19.5ZM0.404951 10.0507L19.905 1.41434L19.095 -0.414338L-0.404951 8.22201L0.404951 10.0507ZM1.1268e-05 10.1364L10.8334 10.1362L10.8334 8.13623L-1.1268e-05 8.13635L1.1268e-05 10.1364ZM9.83339 9.13622L9.83333 19.5L11.8333 19.5L11.8334 9.13624L9.83339 9.13622ZM18.5902 0.0849948L9.92351 19.085L11.7432 19.915L20.4098 0.915005L18.5902 0.0849948Z" fill="#3463FF" mask="url(#path-1-inside-1)"/>
</svg>
