<svg width="82" height="82" viewBox="0 0 82 82" fill="none" xmlns="http://www.w3.org/2000/svg">
<circle cx="40.2419" cy="42" r="40" fill="#3463FF" fill-opacity="0.1"/>
<path fill-rule="evenodd" clip-rule="evenodd" d="M78.4902 14.6445C78.4902 15.1145 78.4482 15.5844 78.3852 16.0339L81.4942 18.4041C81.7673 18.6289 81.8514 19.0171 81.6623 19.3236L78.7213 24.2682C78.5322 24.5747 78.1541 24.6973 77.818 24.5747L74.1628 23.1444C73.4065 23.7166 72.5662 24.1865 71.6839 24.5543L71.1378 28.3343C71.0747 28.6816 70.7596 28.9473 70.4025 28.9473H64.5205C64.1634 28.9473 63.8483 28.6816 63.7853 28.3547L63.2391 24.5747C62.3358 24.2069 61.5165 23.737 60.7603 23.1649L57.105 24.5951C56.7689 24.7177 56.3908 24.5951 56.2017 24.2887L53.2607 19.344C53.0717 19.0375 53.1557 18.6493 53.4288 18.4245L56.5378 16.0544C56.4748 15.5844 56.4328 15.1145 56.4328 14.6445C56.4328 14.1746 56.4748 13.7046 56.5378 13.2551L53.4288 10.885C53.1557 10.6602 53.0717 10.272 53.2607 9.96549L56.2017 5.02083C56.3908 4.71435 56.7689 4.59175 57.105 4.71435L60.7603 6.14462C61.5165 5.57251 62.3568 5.10256 63.2391 4.73478L63.7853 0.954771C63.8483 0.607419 64.1634 0.341797 64.5205 0.341797H70.4025C70.7596 0.341797 71.0747 0.607419 71.1378 0.934339L71.6839 4.71435C72.5872 5.08213 73.4065 5.55208 74.1628 6.12419L77.818 4.69391C78.1541 4.57132 78.5322 4.69392 78.7213 5.0004L81.6623 9.94506C81.8514 10.2515 81.7673 10.6398 81.4942 10.8645L78.3852 13.2347C78.4482 13.7046 78.4902 14.1746 78.4902 14.6445ZM61.109 14.6445C61.109 11.1912 64.0082 8.49316 67.4615 8.49316C70.9148 8.49316 73.814 11.1912 73.814 14.6445C73.814 18.0978 70.9148 20.7959 67.4615 20.7959C64.0082 20.7959 61.1091 18.0978 61.109 14.6445Z" fill="#56E8A2"/>
<path d="M52.9705 57.2747V53.8804C52.9705 52.0799 52.2553 50.3532 50.9822 49.0801C49.7091 47.807 47.9824 47.0918 46.1819 47.0918H34.3019C32.5015 47.0918 30.7748 47.807 29.5017 49.0801C28.2286 50.3532 27.5134 52.0799 27.5134 53.8804V57.2747" stroke="#3463FF" stroke-width="3.39429" stroke-linecap="round" stroke-linejoin="round"/>
<path d="M40.2419 40.3027C43.9911 40.3027 47.0305 37.2634 47.0305 33.5142C47.0305 29.7649 43.9911 26.7256 40.2419 26.7256C36.4927 26.7256 33.4533 29.7649 33.4533 33.5142C33.4533 37.2634 36.4927 40.3027 40.2419 40.3027Z" stroke="#3463FF" stroke-width="3.39429" stroke-linecap="round" stroke-linejoin="round"/>
</svg>
