<svg width="37" height="28" viewBox="0 0 37 28" fill="none" xmlns="http://www.w3.org/2000/svg">
<path d="M31.2644 5.16757L31.4135 5.05122C31.4991 4.9851 31.5874 4.92427 31.673 4.86345L31.8027 4.77354C31.9353 4.68627 32.0788 4.6043 32.2058 4.53025C32.2969 4.48001 32.3881 4.43241 32.4819 4.39009L32.562 4.35307C32.6282 4.32133 32.6972 4.2896 32.7663 4.26316L32.8381 4.23406C32.9016 4.20762 32.9651 4.18647 33.0286 4.16531L33.0755 4.1468C33.1528 4.12035 33.2301 4.09919 33.3074 4.07804H33.3406C33.4579 4.04819 33.5768 4.02436 33.6967 4.00664C33.7881 3.99224 33.8803 3.98253 33.9728 3.97755H34.028C34.1136 3.97755 34.1964 3.97755 34.2793 3.97755H34.3206L34.5139 3.99871H34.5747C34.6474 4.0105 34.7193 4.0264 34.79 4.04631C34.856 4.06396 34.9205 4.08605 34.9833 4.11242L35.0385 4.13358L35.1986 4.20762L35.2511 4.23406L31.7061 2.26128L31.6813 2.24806L31.6537 2.23483L31.4963 2.16079L31.4659 2.14757H31.4411C31.3772 2.12162 31.3118 2.09954 31.2451 2.08145C31.1744 2.06126 31.1025 2.04536 31.0297 2.03386H31.0049H30.9717L30.7757 2.0127H30.7343C30.6514 2.0127 30.5686 2.0127 30.4858 2.0127H30.4361C30.3422 2.0127 30.2456 2.02592 30.16 2.03914C30.0401 2.05712 29.9212 2.08095 29.8039 2.11054H29.7818C29.7045 2.1317 29.6272 2.15285 29.5499 2.1793L29.5029 2.19517L29.3124 2.26657H29.2876L29.2407 2.28772C29.1716 2.31417 29.1054 2.3459 29.0364 2.37764L28.959 2.41466C28.8679 2.45697 28.7768 2.50193 28.683 2.55482C28.5477 2.62887 28.4068 2.71084 28.2798 2.79811L28.1529 2.88802C28.0645 2.94884 27.9762 3.00967 27.8768 3.07578L27.7277 3.19214L27.4958 3.38518L27.3467 3.52006L27.228 3.62583L27.0513 3.79772L30.5962 5.77051C30.6929 5.67266 30.7923 5.58276 30.8917 5.50607C30.9414 5.45847 30.991 5.41351 31.0407 5.3712L31.2644 5.16757Z" fill="#F7F9FF"/>
<path d="M23.288 4.17632L23.4288 4.03878L23.5668 3.90653C23.6718 3.80867 23.7822 3.71081 23.8899 3.61559L23.9478 3.56534C24.0776 3.4569 24.2074 3.35639 24.3399 3.25589L24.4476 3.17653C24.5507 3.10248 24.6528 3.03106 24.754 2.9623L24.8727 2.8856C25.0108 2.79832 25.1488 2.71368 25.2869 2.63698C25.4249 2.56028 25.5132 2.51796 25.6237 2.46506L25.7176 2.42009C25.8032 2.38042 25.886 2.34339 25.9716 2.309L26.0599 2.27198L26.2918 2.18734L26.3498 2.16618C26.4464 2.13445 26.5403 2.10799 26.6259 2.08154L26.7916 2.04451L26.8688 2.026C26.9489 2.00749 27.029 1.99426 27.1063 1.98368C27.2233 1.96595 27.3413 1.95447 27.4597 1.9493H27.5315C27.6336 1.9493 27.7358 1.9493 27.8379 1.9493H27.8876C27.9704 1.9493 28.0505 1.96517 28.1278 1.97575L28.1996 1.98897C28.2926 2.00365 28.3848 2.02307 28.4757 2.04716C28.5585 2.07096 28.6358 2.09742 28.7159 2.12651L28.7821 2.1556C28.8484 2.18205 28.9147 2.21379 28.9782 2.24553L29.0416 2.27727L25.4967 0.304163L25.4663 0.288294L25.4332 0.272426C25.3697 0.240687 25.3034 0.208949 25.2372 0.1825L25.2013 0.163983H25.1709C25.0936 0.134008 25.0136 0.107562 24.9307 0.0846391C24.8451 0.0608349 24.7568 0.0423202 24.6546 0.0264507H24.6215H24.5801C24.5028 0.0264507 24.4227 0.00528983 24.3427 0H24.304C24.2046 0 24.1025 0 23.9976 0H23.9672H23.9285C23.8102 0.00503951 23.6922 0.0165206 23.5751 0.0343852C23.4978 0.0343852 23.4178 0.0581903 23.3377 0.0767047L23.2604 0.0925736L23.1113 0.129598C23.0174 0.156047 22.9208 0.182498 22.8352 0.214237L22.7772 0.235393C22.6999 0.261842 22.6226 0.288293 22.5453 0.320032H22.515L22.457 0.346483L22.203 0.457565L22.1091 0.499884C21.9987 0.555427 21.8855 0.610972 21.775 0.67445C21.6646 0.737927 21.4989 0.83579 21.3581 0.923072L21.2394 0.999777C21.1382 1.06854 21.036 1.13996 20.933 1.21401L20.8253 1.29336C20.6928 1.3921 20.563 1.49526 20.436 1.60282C20.4145 1.61905 20.3942 1.63672 20.3753 1.65571C20.309 1.71125 20.2427 1.7668 20.1792 1.82764L17.6945 0.452278L17.6641 0.436409L17.6282 0.417893C17.5619 0.383509 17.4901 0.349126 17.4184 0.320032L17.3797 0.301516H17.3466C17.2627 0.268085 17.177 0.238953 17.0898 0.214237C16.9991 0.188082 16.907 0.166891 16.8137 0.150762H16.7806H16.7364C16.6536 0.150762 16.568 0.129598 16.4797 0.121664H16.4245C16.3151 0.11503 16.2053 0.11503 16.0959 0.121664H16.0214C15.8999 0.121664 15.7756 0.140179 15.6486 0.156049H15.6072C15.5355 0.156049 15.4637 0.177204 15.3919 0.193073L15.298 0.214237L15.1462 0.251262C15.044 0.277711 14.9446 0.306812 14.8425 0.341196L14.7928 0.359704C14.7072 0.388798 14.6216 0.417894 14.5333 0.452278H14.5057L14.4477 0.476081C14.3538 0.515755 14.2599 0.555429 14.1716 0.600392L14.0694 0.647999C13.9479 0.706187 13.8265 0.767026 13.705 0.835793C13.5311 0.93101 13.3571 1.0368 13.1887 1.14789C13.1307 1.18492 13.0755 1.22724 13.0203 1.26427C12.9071 1.34362 12.7939 1.42032 12.6835 1.50231L12.4902 1.65836C12.3908 1.73506 12.2914 1.81441 12.1948 1.8964L11.996 2.07626L11.811 2.24024C11.7724 2.27463 11.7393 2.31165 11.7006 2.34868L11.5984 2.44918C11.4576 2.58936 11.3224 2.72955 11.1871 2.87502C11.0325 3.04429 10.8834 3.21886 10.7371 3.404C10.6082 3.56446 10.4812 3.72844 10.3561 3.89595L10.3395 3.9224L10.2484 4.05201C10.1738 4.15516 10.0993 4.2583 10.0275 4.36674C10.0084 4.39401 9.9909 4.42227 9.97505 4.45138C9.9364 4.50693 9.9005 4.56511 9.86461 4.6233C9.82872 4.68149 9.77627 4.7582 9.73485 4.82697C9.69344 4.89573 9.6686 4.9407 9.6327 4.99888L9.53332 5.17345L9.46706 5.28453C9.40632 5.39562 9.34834 5.50935 9.29036 5.62308C9.27103 5.65482 9.25445 5.68656 9.23788 5.72094C9.23639 5.7297 9.23639 5.73864 9.23788 5.7474C9.15782 5.90345 9.08329 6.05949 9.01151 6.21818L8.98667 6.27373L8.92038 6.43242C8.88172 6.52499 8.84033 6.61492 8.80444 6.69691C8.78511 6.74188 8.77129 6.78949 8.75197 6.83445C8.73264 6.87942 8.69954 6.97463 8.67469 7.0434C8.64984 7.11216 8.63049 7.15448 8.61116 7.21003L8.54766 7.41369C8.52006 7.49304 8.4952 7.57239 8.47035 7.65174C8.47035 7.68877 8.44554 7.72579 8.43449 7.76282C8.42345 7.79985 8.39858 7.90829 8.37926 7.9797C8.35993 8.05112 8.32679 8.18335 8.30194 8.28386L8.2771 8.38172C8.24673 8.5219 8.21911 8.66209 8.19426 8.79962C8.1958 8.82164 8.1958 8.84373 8.19426 8.86574C8.1777 8.96361 8.16116 9.06146 8.15011 9.15668C8.13907 9.25189 8.12527 9.34448 8.11699 9.43705L8.05073 9.45555C7.96238 9.47671 7.87127 9.50582 7.77464 9.53491L7.68075 9.56136C7.55098 9.60368 7.40468 9.65128 7.28596 9.70418C7.18933 9.74385 7.08992 9.78883 6.99053 9.83379L6.84146 9.89991C6.68961 9.97133 6.53776 10.048 6.38591 10.1327C6.23406 10.2173 6.04357 10.331 5.87515 10.4395L5.78955 10.495C5.62666 10.6008 5.46929 10.7119 5.31192 10.8256L5.22083 10.8944C5.0607 11.0161 4.9033 11.1404 4.74869 11.27L4.70731 11.3044C4.55822 11.4313 4.4091 11.5689 4.26278 11.7011C4.26278 11.7011 4.2352 11.7249 4.22139 11.7408L4.19376 11.7646C4.08332 11.873 3.97014 11.9788 3.86246 12.0899L3.84588 12.1084C3.74373 12.2142 3.64158 12.3226 3.54219 12.4311L3.51183 12.4628L3.47593 12.5025C3.31304 12.685 3.15568 12.8701 3.00107 13.0579C3.00107 13.0579 3.00107 13.0579 3.00107 13.0764L2.96518 13.1214C2.8437 13.2722 2.72221 13.4282 2.60625 13.5869L2.57036 13.6345L2.55381 13.6583C2.44062 13.8117 2.33292 13.9678 2.22525 14.1265C2.21611 14.1421 2.20597 14.1571 2.19488 14.1714L2.15073 14.2402C2.06515 14.3698 1.98231 14.5047 1.89948 14.6343C1.89948 14.6555 1.87187 14.674 1.86083 14.6951V14.7189C1.76696 14.8723 1.67861 15.0257 1.58474 15.1818C1.57578 15.1932 1.56837 15.2056 1.56267 15.2188L1.52125 15.2955C1.45222 15.4198 1.38873 15.5442 1.32523 15.6685C1.31143 15.6949 1.29486 15.7187 1.28381 15.7452C1.27531 15.7605 1.26791 15.7764 1.26171 15.7928C1.18164 15.9515 1.10435 16.1102 1.03257 16.2689V16.2847C1.02638 16.3019 1.01902 16.3187 1.01049 16.335C0.94699 16.4804 0.886239 16.6259 0.8255 16.7714C0.8255 16.7952 0.806177 16.8164 0.795134 16.8402C0.789012 16.8608 0.781649 16.8811 0.773059 16.901C0.706798 17.0729 0.640517 17.2448 0.579777 17.43C0.580917 17.4396 0.580917 17.4494 0.579777 17.4591C0.519038 17.6389 0.463825 17.8161 0.411368 17.988C0.402363 18.0096 0.394994 18.0316 0.389293 18.0542V18.0912C0.328554 18.2975 0.276076 18.5038 0.229141 18.7101C0.229141 18.7286 0.229141 18.7471 0.229141 18.7656L0.212593 18.845L0.162882 19.091C0.162882 19.1465 0.14356 19.2021 0.132517 19.2576C0.121473 19.3131 0.104904 19.4242 0.0938604 19.5221C0.0938604 19.5618 0.0938752 19.6014 0.0745491 19.6411C0.0552229 19.6808 0.0745491 19.6596 0.0745491 19.6702C0.0497012 19.8501 0.0331157 20.0273 0.0193113 20.1992C0.0193113 20.2362 0.0193113 20.2733 0.0193113 20.3103C0.0193113 20.4928 0 20.6726 0 20.8393C0 22.7965 0.726104 24.1719 1.89119 24.8199L5.43339 26.793C4.27106 26.145 3.55048 24.7696 3.54496 22.8256C3.54496 22.6493 3.55049 22.4729 3.56154 22.2966V22.1855C3.57534 22.0083 3.59189 21.8311 3.61674 21.6565C3.61674 21.6089 3.61673 21.5587 3.63882 21.5084C3.6609 21.4582 3.66367 21.3418 3.67747 21.2598C3.69128 21.1778 3.6968 21.1461 3.70784 21.0879L3.75755 20.8472C3.75755 20.8022 3.77687 20.7573 3.78792 20.7097C3.83393 20.5034 3.88641 20.2971 3.9453 20.0908L3.97843 19.9876C4.03089 19.8077 4.0861 19.6279 4.14684 19.4586V19.419C4.20758 19.247 4.27383 19.0751 4.34009 18.9032C4.35666 18.8582 4.376 18.8159 4.39256 18.7736C4.4533 18.6281 4.51402 18.4826 4.57752 18.3372C4.57752 18.316 4.59684 18.2949 4.60789 18.2711C4.67967 18.1124 4.75699 17.9537 4.8343 17.795C4.85639 17.7527 4.87847 17.713 4.89779 17.6707C4.96221 17.5472 5.02847 17.4229 5.09657 17.2977L5.1573 17.184C5.24565 17.0279 5.334 16.8745 5.43339 16.7211L5.48586 16.6365C5.56869 16.5043 5.65152 16.372 5.73711 16.2424L5.81166 16.1287C5.91933 15.97 6.02699 15.8139 6.14019 15.6605C6.1561 15.6365 6.17361 15.6136 6.19263 15.5918C6.30859 15.4331 6.43008 15.277 6.55156 15.1236L6.60127 15.0601C6.75588 14.8723 6.91324 14.6872 7.07613 14.5047L7.14239 14.4333C7.24178 14.3248 7.34116 14.2164 7.44331 14.1133L7.46266 14.0921C7.57033 13.981 7.68075 13.8752 7.79395 13.7694L7.86297 13.7033C8.0093 13.5657 8.15562 13.4388 8.30747 13.3065L8.34889 13.2722C8.5035 13.1426 8.66086 13.0077 8.82099 12.8966L8.91212 12.8278C9.06949 12.7141 9.22685 12.603 9.38975 12.4972L9.47532 12.4417C9.64373 12.3332 9.81217 12.2301 9.9861 12.1349C10.16 12.0396 10.2898 11.9735 10.4389 11.9021L10.5907 11.836C10.6901 11.791 10.7895 11.7461 10.8861 11.7064C10.9827 11.6667 11.1622 11.6032 11.2948 11.5583L11.3886 11.5318C11.5018 11.4974 11.615 11.4631 11.7254 11.4366C11.7448 11.2462 11.7696 11.0557 11.8027 10.8626C11.8027 10.8415 11.8027 10.8203 11.8027 10.7965C11.8322 10.6202 11.8681 10.4483 11.9104 10.2808C11.9325 10.1803 11.9601 10.0798 11.9877 9.97926C12.0153 9.87875 12.0457 9.75973 12.0788 9.64864C12.112 9.53756 12.1285 9.48994 12.1561 9.4106C12.1948 9.28628 12.2362 9.16463 12.2831 9.04032C12.308 8.97155 12.3328 8.90277 12.3605 8.83136C12.4129 8.69382 12.4709 8.56687 12.5289 8.4214L12.5951 8.26534C12.6779 8.07667 12.77 7.89154 12.8712 7.70992L12.9236 7.60941C13.001 7.45865 13.081 7.31053 13.1666 7.16242L13.266 6.98786C13.3406 6.86091 13.4179 6.73658 13.4979 6.61227L13.6056 6.44036C13.6967 6.30547 13.7878 6.17587 13.8817 6.04098C13.9121 5.99866 13.9397 5.9537 13.9728 5.91138C14.0998 5.73417 14.2489 5.55961 14.3704 5.3824C14.4919 5.20519 14.6658 5.02798 14.8204 4.85342C14.975 4.67885 15.0965 4.56247 15.2318 4.42229C15.2677 4.38791 15.3036 4.35617 15.3367 4.32179C15.4333 4.22657 15.5327 4.13664 15.6321 4.05729L15.8309 3.87744C15.9275 3.79545 16.0269 3.7161 16.1263 3.63939C16.2257 3.56269 16.2533 3.5336 16.3195 3.48335C16.43 3.40135 16.5432 3.32465 16.6564 3.2453C16.7116 3.20828 16.7668 3.16596 16.8248 3.12893C16.9932 3.01784 17.1671 2.91469 17.3411 2.81683C17.4625 2.74806 17.584 2.68723 17.7055 2.62904L17.8077 2.58143C17.9015 2.53911 17.9954 2.49679 18.0837 2.45977L18.1693 2.42274L18.4261 2.33017L18.4785 2.31165C18.5807 2.27727 18.6801 2.24817 18.7795 2.22172L18.9479 2.18205L19.0418 2.16089C19.1135 2.14502 19.1853 2.13444 19.2571 2.12386H19.2985C19.4255 2.10535 19.5498 2.09477 19.6712 2.08683H19.7458C19.8378 2.08201 19.9299 2.08201 20.0219 2.08683L19.8838 2.22437C19.8341 2.27463 19.7817 2.32752 19.732 2.38306C19.6823 2.4386 19.6409 2.47564 19.5967 2.52589C19.5769 2.544 19.5584 2.56345 19.5415 2.58408C19.4808 2.6502 19.42 2.71632 19.362 2.78509L22.907 4.7582C22.9843 4.67091 23.0616 4.58363 23.1417 4.4937L23.2742 4.35088L23.288 4.17632Z" fill="#F7F9FF"/>
<path d="M17.1841 2.793C19.945 1.27216 22.2365 2.16086 22.7611 4.73702C23.4661 3.90063 24.3193 3.18975 25.2818 2.63695C28.2028 1.02089 30.5771 2.31691 30.5854 5.5305C30.5854 5.60985 30.5854 5.69184 30.5854 5.77383C31.0602 5.28778 31.605 4.86918 32.2033 4.53072C34.5777 3.20825 36.5103 4.26623 36.5186 6.88736C36.5268 9.50848 34.6053 12.6903 32.2309 14.0049L9.8678 26.3699C6.27866 28.3483 3.37973 26.7587 3.36868 22.8204C3.35764 18.8821 6.24552 14.0921 9.82638 12.1058C10.3699 11.7976 10.9552 11.5626 11.5657 11.4075C11.8998 8.12253 14.2852 4.39847 17.1841 2.793Z" fill="#F2F4F6"/>
</svg>
